<?xml version="1.0" encoding="utf-8"?>
<!-- Generator: Adobe Illustrator 23.0.2, SVG Export Plug-In . SVG Version: 6.00 Build 0)  -->
<svg version="1.1" id="Layer_1" xmlns="http://www.w3.org/2000/svg" xmlns:xlink="http://www.w3.org/1999/xlink" x="0px" y="0px"
	 viewBox="0 0 1134.01 755" style="enable-background:new 0 0 1134.01 755;" xml:space="preserve">
<style type="text/css">
	.st0{fill:#270D8E;}
</style>
<g>
	<g>
		<g>
			<polygon class="st0" points="276.66,242.33 233.38,242.33 211.75,279.8 233.38,317.28 276.66,317.28 298.29,279.8 			"/>
			<path class="st0" d="M204.81,205.35l18.75,32.48l-18.75,32.48h-37.5l-18.75-32.48l18.75-32.48H204.81 M207.7,200.35h-43.27
				l-21.64,37.48l21.64,37.48h43.27l21.64-37.48L207.7,200.35L207.7,200.35z"/>
			<polygon class="st0" points="206.2,279.8 162.93,279.8 141.29,317.28 162.93,354.75 206.2,354.75 227.84,317.28 			"/>
			<path class="st0" d="M271.52,326.03l18.75,32.48l-18.75,32.48h-37.5l-18.75-32.48l18.75-32.48H271.52 M274.41,321.03h-43.27
				L209.5,358.5l21.64,37.48h43.27l21.64-37.48L274.41,321.03L274.41,321.03z"/>
			<g>
				<polygon class="st0" points="413.07,325.52 369.8,325.52 348.16,363 369.8,400.48 413.07,400.48 434.71,363 				"/>
				<path class="st0" d="M341.23,288.55l18.75,32.48l-18.75,32.48h-37.5l-18.75-32.48l18.75-32.48H341.23 M344.11,283.55h-43.27
					l-21.64,37.48l21.64,37.48h43.27l21.64-37.48L344.11,283.55L344.11,283.55z"/>
				<path class="st0" d="M339.73,368l18.75,32.48l-18.75,32.48h-37.5l-18.75-32.48L302.23,368H339.73 M342.61,363h-43.27
					l-21.64,37.48l21.64,37.48h43.27l21.64-37.48L342.61,363L342.61,363z"/>
				<polygon class="st0" points="410.82,404.22 367.55,404.22 345.91,441.7 367.55,479.18 410.82,479.18 432.46,441.7 				"/>
			</g>
			<polygon class="st0" points="274.41,400.48 231.13,400.48 209.5,437.95 231.13,475.43 274.41,475.43 296.04,437.95 			"/>
			<polygon class="st0" points="205.45,358.5 162.18,358.5 140.54,395.98 162.18,433.45 205.45,433.45 227.09,395.98 			"/>
			<path class="st0" d="M201.07,442.95l18.75,32.48l-18.75,32.48h-37.5l-18.75-32.48l18.75-32.48H201.07 M203.95,437.95h-43.27
				l-21.64,37.48l21.64,37.48h43.27l21.64-37.48L203.95,437.95L203.95,437.95z"/>
			<polygon class="st0" points="272.16,479.18 228.89,479.18 207.25,516.65 228.89,554.13 272.16,554.13 293.8,516.65 			"/>
			<path class="st0" d="M132.99,322.18l18.75,32.48l-18.75,32.48h-37.5l-18.75-32.48l18.75-32.48H132.99 M135.87,317.18H92.6
				l-21.64,37.48l21.64,37.48h43.27l21.64-37.48L135.87,317.18L135.87,317.18z"/>
			<path class="st0" d="M132.99,400.93l18.75,32.48l-18.75,32.48h-37.5l-18.75-32.48l18.75-32.48H132.99 M135.87,395.93H92.6
				l-21.64,37.48l21.64,37.48h43.27l21.64-37.48L135.87,395.93L135.87,395.93z"/>
			<polygon class="st0" points="133.62,476.2 90.35,476.2 68.71,513.67 90.35,551.15 133.62,551.15 155.26,513.67 			"/>
			<path class="st0" d="M62.02,363.72l18.75,32.48l-18.75,32.48h-37.5L5.77,396.2l18.75-32.48H62.02 M64.91,358.72H21.64L0,396.2
				l21.64,37.48h43.27l21.64-37.48L64.91,358.72L64.91,358.72z"/>
			<polygon class="st0" points="201.99,519.46 158.72,519.46 137.08,556.94 158.72,594.42 201.99,594.42 223.63,556.94 			"/>
			<polygon class="st0" points="130.16,557.54 86.89,557.54 65.25,595.02 86.89,632.49 130.16,632.49 151.8,595.02 			"/>
			<path class="st0" d="M197.02,605.16l18.75,32.48l-18.75,32.48h-37.5l-18.75-32.48l18.75-32.48H197.02 M199.91,600.16h-43.27
				L135,637.64l21.64,37.48h43.27l21.64-37.48L199.91,600.16L199.91,600.16z"/>
			<polygon class="st0" points="135.45,237 92.18,237 70.54,274.48 92.18,311.95 135.45,311.95 157.09,274.48 			"/>
			<polygon class="st0" points="66.45,194 23.18,194 1.54,231.48 23.18,268.95 66.45,268.95 88.09,231.48 			"/>
		</g>
		<g>
			<polygon class="st0" points="411.57,484.42 368.3,484.42 346.66,521.9 368.3,559.37 411.57,559.37 433.21,521.9 			"/>
			<path class="st0" d="M339.73,447.45l18.75,32.48l-18.75,32.48h-37.5l-18.75-32.48l18.75-32.48H339.73 M342.61,442.45h-43.27
				l-21.64,37.48l21.64,37.48h43.27l21.64-37.48L342.61,442.45L342.61,442.45z"/>
			<polygon class="st0" points="341.12,521.9 297.84,521.9 276.2,559.37 297.84,596.85 341.12,596.85 362.75,559.37 			"/>
			<path class="st0" d="M406.44,568.12l18.75,32.48l-18.75,32.48h-37.5l-18.75-32.48l18.75-32.48H406.44 M409.32,563.12h-43.27
				l-21.64,37.48l21.64,37.48h43.27l21.64-37.48L409.32,563.12L409.32,563.12z"/>
			<g>
				<polygon class="st0" points="547.98,567.62 504.71,567.62 483.07,605.1 504.71,642.57 547.98,642.57 569.62,605.1 				"/>
				<path class="st0" d="M476.14,530.65l18.75,32.48l-18.75,32.48h-37.5l-18.75-32.48l18.75-32.48H476.14 M479.03,525.65h-43.27
					l-21.64,37.48l21.64,37.48h43.27l21.64-37.48L479.03,525.65L479.03,525.65z"/>
				<path class="st0" d="M474.64,610.1l18.75,32.48l-18.75,32.48h-37.5l-18.75-32.48l18.75-32.48H474.64 M477.53,605.1h-43.27
					l-21.64,37.48l21.64,37.48h43.27l21.64-37.48L477.53,605.1L477.53,605.1z"/>
			</g>
			<polygon class="st0" points="409.32,642.57 366.05,642.57 344.41,680.05 366.05,717.52 409.32,717.52 430.96,680.05 			"/>
			<polygon class="st0" points="340.37,600.6 297.09,600.6 275.46,638.07 297.09,675.55 340.37,675.55 362,638.07 			"/>
			<path class="st0" d="M335.98,685.05l18.75,32.48L335.98,750h-37.5l-18.75-32.48l18.75-32.48H335.98 M338.87,680.05h-43.27
				l-21.64,37.48L295.59,755h43.27l21.64-37.48L338.87,680.05L338.87,680.05z"/>
		</g>
		<g>
			<polygon class="st0" points="695.64,327.77 652.37,327.77 630.73,365.25 652.37,402.72 695.64,402.72 717.28,365.25 			"/>
			<path class="st0" d="M623.8,290.8l18.75,32.48l-18.75,32.48h-37.5l-18.75-32.48l18.75-32.48H623.8 M626.68,285.8h-43.27
				l-21.64,37.48l21.64,37.48h43.27l21.64-37.48L626.68,285.8L626.68,285.8z"/>
			<polygon class="st0" points="625.18,365.25 581.91,365.25 560.27,402.72 581.91,440.2 625.18,440.2 646.82,402.72 			"/>
			<path class="st0" d="M690.5,411.47l18.75,32.48l-18.75,32.48H653l-18.75-32.48L653,411.47H690.5 M693.39,406.47h-43.27
				l-21.64,37.48l21.64,37.48h43.27l21.64-37.48L693.39,406.47L693.39,406.47z"/>
			<g>
				<polygon class="st0" points="832.05,410.97 788.78,410.97 767.14,448.44 788.78,485.92 832.05,485.92 853.69,448.44 				"/>
				<path class="st0" d="M760.21,374l18.75,32.48l-18.75,32.48h-37.5l-18.75-32.48L722.71,374H760.21 M763.1,369h-43.27
					l-21.64,37.48l21.64,37.48h43.27l21.64-37.48L763.1,369L763.1,369z"/>
				<path class="st0" d="M758.71,453.44l18.75,32.48l-18.75,32.48h-37.5l-18.75-32.48l18.75-32.48H758.71 M761.6,448.44h-43.27
					l-21.64,37.48l21.64,37.48h43.27l21.64-37.48L761.6,448.44L761.6,448.44z"/>
			</g>
			<polygon class="st0" points="693.39,485.92 650.12,485.92 628.48,523.4 650.12,560.87 693.39,560.87 715.03,523.4 			"/>
			<polygon class="st0" points="624.44,443.95 581.16,443.95 559.52,481.42 581.16,518.9 624.44,518.9 646.07,481.42 			"/>
			<path class="st0" d="M620.05,528.4l18.75,32.48l-18.75,32.48h-37.5l-18.75-32.48l18.75-32.48H620.05 M622.94,523.4h-43.27
				l-21.64,37.48l21.64,37.48h43.27l21.64-37.48L622.94,523.4L622.94,523.4z"/>
			<polygon class="st0" points="553.23,402.72 509.96,402.72 488.32,440.2 509.96,477.68 553.23,477.68 574.87,440.2 			"/>
			<path class="st0" d="M550.34,490.92l18.75,32.48l-18.75,32.48h-37.5l-18.75-32.48l18.75-32.48H550.34 M553.23,485.92h-43.27
				l-21.64,37.48l21.64,37.48h43.27l21.64-37.48L553.23,485.92L553.23,485.92z"/>
		</g>
		<g>
			<polygon class="st0" points="1044.92,376.49 1001.64,376.49 980.01,413.97 1001.64,451.44 1044.92,451.44 1066.56,413.97 			"/>
			<path class="st0" d="M973.08,339.52l18.75,32.48l-18.75,32.48h-37.5l-18.75-32.48l18.75-32.48H973.08 M975.96,334.52h-43.27
				l-21.64,37.48l21.64,37.48h43.27l21.64-37.48L975.96,334.52L975.96,334.52z"/>
			<polygon class="st0" points="974.46,413.97 931.19,413.97 909.55,451.44 931.19,488.92 974.46,488.92 996.1,451.44 			"/>
			<path class="st0" d="M1039.78,460.19l18.75,32.48l-18.75,32.48h-37.5l-18.75-32.48l18.75-32.48H1039.78 M1042.67,455.19H999.4
				l-21.64,37.48l21.64,37.48h43.27l21.64-37.48L1042.67,455.19L1042.67,455.19z"/>
			<g>
				<path class="st0" d="M1109.49,422.71l18.75,32.48l-18.75,32.48h-37.5l-18.75-32.48l18.75-32.48H1109.49 M1112.38,417.71h-43.27
					l-21.64,37.48l21.64,37.48h43.27l21.64-37.48L1112.38,417.71L1112.38,417.71z"/>
				<path class="st0" d="M1107.99,502.16l18.75,32.48l-18.75,32.48h-37.5l-18.75-32.48l18.75-32.48H1107.99 M1110.88,497.16h-43.27
					l-21.64,37.48l21.64,37.48h43.27l21.64-37.48L1110.88,497.16L1110.88,497.16z"/>
			</g>
			<polygon class="st0" points="1042.67,534.64 999.4,534.64 977.76,572.12 999.4,609.59 1042.67,609.59 1064.31,572.12 			"/>
			<polygon class="st0" points="973.71,492.67 930.44,492.67 908.8,530.14 930.44,567.62 973.71,567.62 995.35,530.14 			"/>
			<path class="st0" d="M969.33,577.12l18.75,32.48l-18.75,32.48h-37.5l-18.75-32.48l18.75-32.48H969.33 M972.21,572.12h-43.27
				l-21.64,37.48l21.64,37.48h43.27l21.64-37.48L972.21,572.12L972.21,572.12z"/>
			<polygon class="st0" points="902.51,451.44 859.23,451.44 837.6,488.92 859.23,526.4 902.51,526.4 924.15,488.92 			"/>
			<path class="st0" d="M899.62,539.64l18.75,32.48l-18.75,32.48h-37.5l-18.75-32.48l18.75-32.48H899.62 M902.51,534.64h-43.27
				l-21.64,37.48l21.64,37.48h43.27l21.64-37.48L902.51,534.64L902.51,534.64z"/>
			<polygon class="st0" points="911.71,214 868.44,214 846.8,251.48 868.44,288.95 911.71,288.95 933.35,251.48 			"/>
		</g>
		<path class="st0" d="M899.62,376.99l18.75,32.48l-18.75,32.48h-37.5l-18.75-32.48l18.75-32.48H899.62 M902.51,371.99h-43.27
			l-21.64,37.48l21.64,37.48h43.27l21.64-37.48L902.51,371.99L902.51,371.99z"/>
		<path class="st0" d="M760.62,291l18.75,32.48l-18.75,32.48h-37.5l-18.75-32.48L723.12,291H760.62 M763.51,286h-43.27l-21.64,37.48
			l21.64,37.48h43.27l21.64-37.48L763.51,286L763.51,286z"/>
		<path class="st0" d="M838.62,177l18.75,32.48l-18.75,32.48h-37.5l-18.75-32.48L801.12,177H838.62 M841.51,172h-43.27l-21.64,37.48
			l21.64,37.48h43.27l21.64-37.48L841.51,172L841.51,172z"/>
	</g>
	<g>
		<g>
			<g>
				<polygon class="st0" points="558.52,8.29 515.25,8.29 493.61,45.77 515.25,83.24 558.52,83.24 580.16,45.77 				"/>
			</g>
			<polygon class="st0" points="422.11,4.54 378.83,4.54 357.2,42.02 378.83,79.5 422.11,79.5 443.74,42.02 			"/>
			<path class="st0" d="M348.76,47.02l18.75,32.48l-18.75,32.48h-37.5L292.51,79.5l18.75-32.48H348.76 M351.65,42.02h-43.27
				L286.74,79.5l21.64,37.48h43.27l21.64-37.48L351.65,42.02L351.65,42.02z"/>
			<polygon class="st0" points="419.86,83.24 376.58,83.24 354.95,120.72 376.58,158.2 419.86,158.2 441.49,120.72 			"/>
			<path class="st0" d="M280.68,5l18.75,32.48l-18.75,32.48h-37.5l-18.75-32.48L243.18,5H280.68 M283.57,0H240.3l-21.64,37.48
				l21.64,37.48h43.27l21.64-37.48L283.57,0L283.57,0z"/>
			<polygon class="st0" points="281.32,80.26 238.05,80.26 216.41,117.74 238.05,155.22 281.32,155.22 302.96,117.74 			"/>
			<polygon class="st0" points="349.69,123.53 306.41,123.53 284.78,161.01 306.41,198.49 349.69,198.49 371.33,161.01 			"/>
			<polygon class="st0" points="277.86,161.61 234.59,161.61 212.95,199.09 234.59,236.56 277.86,236.56 299.5,199.09 			"/>
			<path class="st0" d="M344.72,209.23l18.75,32.48l-18.75,32.48h-37.5l-18.75-32.48l18.75-32.48H344.72 M347.61,204.23h-43.27
				l-21.64,37.48l21.64,37.48h43.27l21.64-37.48L347.61,204.23L347.61,204.23z"/>
		</g>
		<g>
			<polygon class="st0" points="559.27,88.49 516,88.49 494.36,125.97 516,163.44 559.27,163.44 580.91,125.97 			"/>
			<path class="st0" d="M487.43,51.52l18.75,32.48l-18.75,32.48h-37.5l-18.75-32.48l18.75-32.48H487.43 M490.31,46.52h-43.27
				L425.4,83.99l21.64,37.48h43.27l21.64-37.48L490.31,46.52L490.31,46.52z"/>
			<polygon class="st0" points="488.81,125.97 445.54,125.97 423.9,163.44 445.54,200.92 488.81,200.92 510.45,163.44 			"/>
			<path class="st0" d="M554.13,172.19l18.75,32.48l-18.75,32.48h-37.5l-18.75-32.48l18.75-32.48H554.13 M557.02,167.19h-43.27
				l-21.64,37.48l21.64,37.48h43.27l21.64-37.48L557.02,167.19L557.02,167.19z"/>
			<g>
				<polygon class="st0" points="695.68,171.69 652.41,171.69 630.77,209.16 652.41,246.64 695.68,246.64 717.32,209.16 				"/>
				<path class="st0" d="M623.84,134.71l18.75,32.48l-18.75,32.48h-37.5l-18.75-32.48l18.75-32.48H623.84 M626.73,129.71h-43.27
					l-21.64,37.48l21.64,37.48h43.27l21.64-37.48L626.73,129.71L626.73,129.71z"/>
				<path class="st0" d="M622.34,214.16l18.75,32.48l-18.75,32.48h-37.5l-18.75-32.48l18.75-32.48H622.34 M625.23,209.16h-43.27
					l-21.64,37.48l21.64,37.48h43.27l21.64-37.48L625.23,209.16L625.23,209.16z"/>
			</g>
			<polygon class="st0" points="557.02,246.64 513.75,246.64 492.11,284.12 513.75,321.59 557.02,321.59 578.66,284.12 			"/>
			<polygon class="st0" points="488.06,204.67 444.79,204.67 423.15,242.14 444.79,279.62 488.06,279.62 509.7,242.14 			"/>
			<path class="st0" d="M483.68,289.12l18.75,32.48l-18.75,32.48h-37.5l-18.75-32.48l18.75-32.48H483.68 M486.57,284.12h-43.27
				l-21.64,37.48l21.64,37.48h43.27l21.64-37.48L486.57,284.12L486.57,284.12z"/>
		</g>
		<g>
			<path class="st0" d="M838.2,15.54l18.75,32.48L838.2,80.49h-37.5l-18.75-32.48l18.75-32.48H838.2 M841.09,10.54h-43.27
				l-21.64,37.48l21.64,37.48h43.27l21.64-37.48L841.09,10.54L841.09,10.54z"/>
			<g>
				<polygon class="st0" points="979.75,15.04 936.48,15.04 914.84,52.51 936.48,89.99 979.75,89.99 1001.39,52.51 				"/>
				<path class="st0" d="M906.41,57.51l18.75,32.48l-18.75,32.48h-37.5l-18.75-32.48l18.75-32.48H906.41 M909.3,52.51h-43.27
					l-21.64,37.48l21.64,37.48h43.27l21.64-37.48L909.3,52.51L909.3,52.51z"/>
			</g>
			<polygon class="st0" points="841.09,89.99 797.82,89.99 776.18,127.47 797.82,164.94 841.09,164.94 862.73,127.47 			"/>
			<polygon class="st0" points="772.13,48.02 728.86,48.02 707.22,85.49 728.86,122.97 772.13,122.97 793.77,85.49 			"/>
			<path class="st0" d="M767.75,132.47l18.75,32.48l-18.75,32.48h-37.5l-18.75-32.48l18.75-32.48H767.75 M770.63,127.47h-43.27
				l-21.64,37.48l21.64,37.48h43.27l21.64-37.48L770.63,127.47L770.63,127.47z"/>
			<polygon class="st0" points="700.93,6.79 657.66,6.79 636.02,44.27 657.66,81.75 700.93,81.75 722.57,44.27 			"/>
			<path class="st0" d="M698.04,94.99l18.75,32.48l-18.75,32.48h-37.5l-18.75-32.48l18.75-32.48H698.04 M700.93,89.99h-43.27
				l-21.64,37.48l21.64,37.48h43.27l21.64-37.48L700.93,89.99L700.93,89.99z"/>
		</g>
	</g>
</g>
</svg>
