<?xml version="1.0" encoding="utf-8"?>
<!-- Generator: Adobe Illustrator 23.0.2, SVG Export Plug-In . SVG Version: 6.00 Build 0)  -->
<svg version="1.1" id="Layer_1" xmlns="http://www.w3.org/2000/svg" xmlns:xlink="http://www.w3.org/1999/xlink" x="0px" y="0px"
	 viewBox="0 0 569.26 528" style="enable-background:new 0 0 569.26 528;" xml:space="preserve">
<style type="text/css">
	.st0{fill:#FFD301;}
	.st1{fill:#FFD301;stroke:#000000;stroke-miterlimit:10;}
	.st2{fill:none;stroke:#000000;stroke-width:10;stroke-miterlimit:10;}
</style>
<g>
	<g>
		<polygon class="st0" points="261.89,224.25 176.16,224.25 176.16,223.25 261.32,223.25 303.75,149.75 261.32,76.25 176.16,76.25 
			176.16,75.25 261.89,75.25 304.91,149.75 304.76,150 		"/>
	</g>
	<g>
		<g>
			<polygon class="st0" points="129.54,148.5 128.67,148 171.25,74.25 128.67,0.5 129.54,0 172.41,74.25 172.26,74.5 			"/>
		</g>
		<g>
			<path class="st1" d="M129.1,148.25"/>
		</g>
		<g>
			<polygon class="st0" points="171.4,225.5 128.82,151.75 43.66,151.75 43.66,150.75 129.39,150.75 172.26,225 			"/>
		</g>
		<g>
			<polygon class="st0" points="129.39,299.75 43.37,299.75 0.5,225.5 1.37,225 43.95,298.75 128.82,298.75 171.4,225 172.26,225.5 
							"/>
		</g>
		<g>
			<path class="st1" d="M0.93,225.25"/>
		</g>
		<g>
			<path class="st1" d="M43.66,151.25"/>
		</g>
	</g>
	<g>
		<g>
			<polygon class="st0" points="393.39,149 307.66,149 307.66,148 392.82,148 435.25,74.5 392.82,1 307.66,1 307.66,0 393.39,0 
				436.41,74.5 436.26,74.75 			"/>
		</g>
		<g>
			<polygon class="st0" points="393.1,151.5 307.66,151.5 264.93,225.5 307.66,299.5 393.1,299.5 435.83,225.5 			"/>
		</g>
	</g>
	<g>
		<polygon class="st0" points="261.6,227.5 176.16,227.5 133.43,301.5 176.16,375.5 261.6,375.5 304.33,301.5 		"/>
	</g>
	<g>
		<polyline class="st0" points="308.16,451.5 393.6,451.5 436.33,377.5 		"/>
	</g>
	<g>
		<polyline class="st0" points="436.33,377.5 393.6,303.5 308.16,303.5 265.43,377.5 308.16,451.5 		"/>
	</g>
	<g>
		<rect x="21.29" y="371.78" transform="matrix(0.866 -0.5 0.5 0.866 -204.329 66.4293)" class="st0" width="1" height="85.45"/>
	</g>
	<g>
		<polygon class="st0" points="170.9,377.75 128.32,304 43.16,304 43.16,303 128.89,303 171.76,377.25 		"/>
	</g>
	<g>
		<g>
			<path class="st0" d="M525.53,229.5l42.15,73l-42.15,73h-84.29l-42.15-73l42.15-73H525.53 M526.1,228.5h-85.45l-42.72,74l42.72,74
				h85.45l42.72-74L526.1,228.5L526.1,228.5z"/>
		</g>
		<g>
			<polygon class="st0" points="568.4,453.75 525.82,380 440.95,380 398.37,453.75 397.5,453.25 440.37,379 526.39,379 
				569.26,453.25 			"/>
		</g>
	</g>
	<g>
		<path class="st1" d="M304.33,453.5"/>
	</g>
	<g>
		<polygon class="st0" points="261.6,528 175.87,528 132.86,453.5 133,453.25 175.72,379.25 176.59,379.75 134.01,453.5 176.45,527 
			261.6,527 		"/>
	</g>
	<g>
		<rect x="42.66" y="450.75" class="st0" width="85.45" height="1"/>
	</g>
</g>
<polyline class="st2" points="763.89,-797.11 937.55,-598.68 852.54,-349.07 593.87,-297.89 420.21,-496.32 "/>
</svg>
