<?xml version="1.0" encoding="utf-8"?>
<!-- Generator: Adobe Illustrator 23.0.2, SVG Export Plug-In . SVG Version: 6.00 Build 0)  -->
<svg version="1.1" id="Layer_1" xmlns="http://www.w3.org/2000/svg" xmlns:xlink="http://www.w3.org/1999/xlink" x="0px" y="0px"
	 viewBox="0 0 359.54 321.37" style="enable-background:new 0 0 359.54 321.37;" xml:space="preserve">
<style type="text/css">
	.st0{fill:#C9BBE2;}
</style>
<g>
	<polygon class="st0" points="289.17,292.58 298.1,277.11 61.44,277.11 70.38,292.58 	"/>
	<polygon class="st0" points="20.48,206.16 29.41,221.63 330.13,221.63 339.06,206.16 	"/>
	<polygon class="st0" points="40.96,241.63 49.9,257.11 309.65,257.11 318.58,241.63 	"/>
	<polygon class="st0" points="0,170.69 8.93,186.16 350.61,186.16 359.54,170.69 	"/>
	<polygon class="st0" points="277.62,8.79 272.54,0 87,0 81.92,8.79 	"/>
	<polygon class="st0" points="81.92,312.58 87,321.37 272.54,321.37 277.62,312.58 	"/>
	<polygon class="st0" points="8.93,135.21 0,150.69 359.54,150.69 350.61,135.21 	"/>
	<polygon class="st0" points="70.38,28.79 61.44,44.27 298.1,44.27 289.17,28.79 	"/>
	<polygon class="st0" points="49.9,64.27 40.96,79.74 318.58,79.74 309.65,64.27 	"/>
	<polygon class="st0" points="29.41,99.74 20.48,115.21 339.06,115.21 330.13,99.74 	"/>
</g>
<g>
	<polygon class="st0" points="289.17,292.58 298.1,277.11 61.44,277.11 70.38,292.58 	"/>
	<polygon class="st0" points="20.48,206.16 29.41,221.63 330.13,221.63 339.06,206.16 	"/>
	<polygon class="st0" points="40.96,241.63 49.9,257.11 309.65,257.11 318.58,241.63 	"/>
	<polygon class="st0" points="0,170.69 8.93,186.16 350.61,186.16 359.54,170.69 	"/>
	<polygon class="st0" points="277.62,8.79 272.54,0 87,0 81.92,8.79 	"/>
	<polygon class="st0" points="81.92,312.58 87,321.37 272.54,321.37 277.62,312.58 	"/>
	<polygon class="st0" points="8.93,135.21 0,150.69 359.54,150.69 350.61,135.21 	"/>
	<polygon class="st0" points="70.38,28.79 61.44,44.27 298.1,44.27 289.17,28.79 	"/>
	<polygon class="st0" points="49.9,64.27 40.96,79.74 318.58,79.74 309.65,64.27 	"/>
	<polygon class="st0" points="29.41,99.74 20.48,115.21 339.06,115.21 330.13,99.74 	"/>
</g>
</svg>
