<?xml version="1.0" encoding="utf-8"?>
<!-- Generator: Adobe Illustrator 23.0.2, SVG Export Plug-In . SVG Version: 6.00 Build 0)  -->
<svg version="1.1" id="Layer_1" xmlns="http://www.w3.org/2000/svg" xmlns:xlink="http://www.w3.org/1999/xlink" x="0px" y="0px"
	 viewBox="0 0 986.89 683.52" style="enable-background:new 0 0 986.89 683.52;" xml:space="preserve">
<style type="text/css">
	.st0{fill:#C9BBE2;}
</style>
<g>
	<polygon class="st0" points="890.03,346 889.46,345 693.43,345 595.42,514.76 692.86,683.52 696.32,681.52 600.04,514.76 
		695.74,349 887.15,349 983.43,515.76 986.89,513.76 	"/>
	<polygon class="st0" points="294.03,339.52 391.47,170.76 294.03,2 290.57,4 386.85,170.76 290.57,337.52 	"/>
	<rect x="48.16" y="157.78" transform="matrix(0.866 -0.5 0.5 0.866 -120.6059 59.2005)" class="st0" width="4" height="193.71"/>
	<polygon class="st0" points="98.59,345 98.59,349 291.15,349 386.85,514.76 290.57,681.52 294.03,683.52 391.47,514.76 293.46,345 
			"/>
	<polygon class="st0" points="696.32,335.52 600.04,168.76 696.32,2 692.86,0 595.42,168.76 692.86,337.52 	"/>
</g>
<g>
	<polygon class="st0" points="601.78,474.51 610.71,459.03 374.06,459.03 382.99,474.51 	"/>
	<polygon class="st0" points="333.1,388.09 342.03,403.56 642.74,403.56 651.68,388.09 	"/>
	<polygon class="st0" points="353.58,423.56 362.51,439.03 622.26,439.03 631.2,423.56 	"/>
	<polygon class="st0" points="312.61,352.61 321.55,368.09 663.22,368.09 672.16,352.61 	"/>
	<polygon class="st0" points="590.23,190.72 585.16,181.93 399.61,181.93 394.54,190.72 	"/>
	<polygon class="st0" points="394.54,494.51 399.61,503.3 585.16,503.3 590.23,494.51 	"/>
	<polygon class="st0" points="321.55,317.14 312.61,332.61 672.16,332.61 663.22,317.14 	"/>
	<polygon class="st0" points="382.99,210.72 374.06,226.19 610.71,226.19 601.78,210.72 	"/>
	<polygon class="st0" points="362.51,246.19 353.58,261.67 631.2,261.67 622.26,246.19 	"/>
	<polygon class="st0" points="342.03,281.67 333.1,297.14 651.68,297.14 642.74,281.67 	"/>
</g>
</svg>
