<?xml version="1.0" encoding="utf-8"?>
<!-- Generator: Adobe Illustrator 23.0.2, SVG Export Plug-In . SVG Version: 6.00 Build 0)  -->
<svg version="1.1" id="Layer_1" xmlns="http://www.w3.org/2000/svg" xmlns:xlink="http://www.w3.org/1999/xlink" x="0px" y="0px"
	 viewBox="0 0 329.75 219.24" style="enable-background:new 0 0 329.75 219.24;" xml:space="preserve">
<style type="text/css">
	.st0{fill:#C9BBE2;}
</style>
<g>
	<path class="st0" d="M123.89,61.33c2.52,0.16,4.19,0.21,5.85,0.37c6.82,0.65,12.7-0.49,18.54-5.05c12.03-9.4,22.65-9.14,35.08,0.46
		c5.08,3.92,10.15,5.15,16.18,4.66c13.39-1.09,26.55-0.25,39.51,3.86c16.77,5.32,28.38,16.34,36.14,31.69
		c6.1,12.07,5.06,22.68-2.51,30.62c-8.86,9.3-21.62,12.14-33.46,6.7c-13.83-6.35-24.1-16.32-29.21-31.07
		c-4.35-12.56-11.21-23.43-22.32-31.14c-14.51-10.06-32.06-9.58-46.07,1.13c-10.86,8.31-16.76,19.78-21.7,32.26
		c-6.21,15.69-17.76,26.5-34.4,30.62c-12.28,3.04-22.5-1.54-29.76-11.58c-6.84-9.46-4.3-19.31,0.59-28.79
		c13-25.16,35.29-33.83,61.91-34.74C120.41,61.27,122.58,61.33,123.89,61.33z M148.09,60.58c-0.13,0.68-0.26,1.36-0.39,2.04
		c1.37,0.15,2.9,0.76,4.09,0.36c9.16-3.1,18.23-3.11,27.39,0.06c1.13,0.39,2.63-0.31,3.96-0.5c-0.07-0.59-0.13-1.19-0.2-1.78
		C171.37,55.63,159.75,55.76,148.09,60.58z"/>
	<path class="st0" d="M165.49,219.24c-2.88-4.71-5.14-9.43-8.35-13.38c-4.14-5.1-8.61-10.11-13.7-14.21
		c-14.16-11.42-21.49-26.46-24.22-43.96c-3.28-21.07-0.66-41.27,11.33-59.38c9.28-14.03,21.74-23.07,39.62-20.89
		c12.75,1.55,21.89,9.14,29.1,19.24c18.98,26.61,18.04,69.43-2.01,95.18c-1.02,1.31-2.09,2.6-3.27,3.77
		c-5.2,5.12-10.86,9.85-15.57,15.39C173.72,206.53,169.95,212.86,165.49,219.24z M197.34,89.1c-8.8-11.73-18.85-19.74-33.27-19.08
		c-13.14,0.6-22.62,7.93-30.31,19.09C155.15,93.7,175.66,93.6,197.34,89.1z M122.04,143.15c0.36,11.33,0.5,11.7,10.01,14.12
		c22.37,5.69,44.76,5.68,67.13-0.12c8.94-2.32,10.14-4.02,9.33-13.85C179.83,153.25,151.12,153.38,122.04,143.15z M206.22,109.53
		c-27.38,9.4-54.63,8.94-81.7,0.15c-3.58,10.15-3.59,10.2,5.72,12.69c23.5,6.29,47,6.3,70.49-0.05
		C209.98,119.82,210.13,119.49,206.22,109.53z M135.7,178.82c3.5,4.88,6.61,10,13.61,9.97c10.6-0.04,21.21-0.11,31.81,0.05
		c7.29,0.11,10.53-5.06,15.42-10.88C175.38,182.9,155.63,182.83,135.7,178.82z"/>
	<path class="st0" d="M136.12,57.71c-6.06,0-11.67,0.03-17.28-0.01c-10.96-0.06-21.46,2.19-31.71,5.93
		C74.67,68.19,64.64,75.8,57.58,87.06c-1.79,2.85-4.01,4.05-7.21,4.42C34,93.35,19.48,90.27,8.94,76.34
		C-10.27,50.93,2.98,18.25,34.3,13.8c12.42-1.76,24.55-0.56,36.35,3.83C89.57,24.66,122.45,44.71,136.12,57.71z"/>
	<path class="st0" d="M194.14,57.72c3.65-2.8,6.7-5.24,9.86-7.54c17.66-12.87,35.78-24.94,56.44-32.61
		c13.64-5.06,27.61-6.1,41.72-2.58c20.46,5.1,29.99,20.78,27.09,41.66c-3.84,27.69-26.17,38.71-50.45,34.43
		c-1.6-0.28-3.57-1.35-4.41-2.67c-14.74-22.87-37.24-29.76-62.66-30.66C206.18,57.55,200.62,57.72,194.14,57.72z"/>
	<path class="st0" d="M173.27,40.52c9,3.65,14.62,9.06,16.67,18.64c-16.44-14.73-32.68-15.02-48.92-0.02
		c1.28-7.78,5.33-13.24,11.88-16.28c4.02-1.87,4.14-3.9,2.54-7.3c-4.74-10.06-12.09-17.84-20.91-24.38
		c-0.93-0.69-2.42-1.09-2.81-1.99c-1.02-2.37-1.57-4.94-2.31-7.43c2.22-0.62,4.61-2.08,6.64-1.69c6.02,1.16,10.81,5.01,13.6,10.2
		c4.29,8.01,7.69,16.5,11.31,24.86c0.97,2.25,0.92,4.74,4.62,4.58c3.32-0.14,3.31-2.28,4.24-4.43c3.75-8.66,7.17-17.56,11.98-25.61
		c2.35-3.93,7.21-6.75,11.5-8.98c2-1.04,6.66-0.45,7.82,1.1c2.3,3.09-0.25,5.85-2.95,8.34c-6.56,6.05-13.07,12.22-18.99,18.89
		C176.55,31.98,175.39,36.25,173.27,40.52z"/>
</g>
</svg>
