<?xml version="1.0" encoding="utf-8"?>
<!-- Generator: Adobe Illustrator 23.0.2, SVG Export Plug-In . SVG Version: 6.00 Build 0)  -->
<svg version="1.1" id="Layer_1" xmlns="http://www.w3.org/2000/svg" xmlns:xlink="http://www.w3.org/1999/xlink" x="0px" y="0px"
	 viewBox="0 0 533.22 358.9" style="enable-background:new 0 0 533.22 358.9;" xml:space="preserve">
<style type="text/css">
	.st0{opacity:0.4;}
	.st1{opacity:0.3;fill:#326C91;}
	.st2{fill:#441B9E;}
	.st3{fill:#0B7777;}
	.st4{fill:#55164A;}
	.st5{fill:#3889C8;}
	.st6{fill:#01918B;}
	.st7{fill:#004477;}
	.st8{fill:#F1B900;}
	.st9{fill:#0C005B;}
	.st10{fill:#99D6D5;}
	.st11{fill:#0C1A3B;}
	.st12{opacity:0.7;}
	.st13{fill:#FFFFFF;}
	.st14{opacity:0.7;fill:#270D8E;}
	.st15{fill:#F1951F;}
	.st16{fill:#FFDEAC;}
	.st17{opacity:0.3;fill:#F1951F;}
	.st18{fill:#309CE5;}
	.st19{fill:#F3B652;}
	.st20{fill:#FFC77C;}
	.st21{opacity:0.6;fill:#F1951F;}
	.st22{fill:#9E4321;}
	.st23{opacity:0.3;fill:#00263C;}
	.st24{fill:#798F71;}
	.st25{fill:#9B5300;}
	.st26{fill:#93415D;}
	.st27{fill:#F48863;}
	.st28{fill:#FFD301;}
	.st29{opacity:0.2;}
	.st30{opacity:0.7;fill:#FFFFFF;}
	.st31{fill:#E83E4D;}
</style>
<g>
	<g>
		<g class="st0">
			<path class="st1" d="M223.69,92.33c-18.36,6.25-47.28-14.18-81.61-6.17c-34.33,8.02-45.84,40.6-46.15,68.97
				c0,0-18.5,11.1-12.33,39.47c0,0-45.33,54.58-12.95,108.23c32.38,53.65,93.43,34.23,112.55,19.43
				c19.12-14.8,37.31,3.08,53.34-4.01c16.03-7.09,30.83-26.21,45.02-22.82c14.18,3.39,43.17,39.16,118.4,25.9
				c75.24-13.26,81.4-75.85,81.4-75.85s46.87-17.58,43.78-67.53c-3.08-49.95-57.04-52.42-57.04-52.42s-24.36-28.68-64.14-22.51
				c0,0-28.68-57.35-88.8-59.2C255.04,41.97,247.84,84.11,223.69,92.33z"/>
			<path class="st2" d="M243.69,121.15c-12.99,4.42-33.47-10.04-57.77-4.37s-32.45,28.74-32.67,48.82c0,0-13.1,7.86-8.73,27.94
				c0,0-32.08,38.63-9.17,76.61s66.13,24.23,79.66,13.75c13.53-10.48,26.41,2.18,37.76-2.84c11.35-5.02,21.83-18.55,31.87-16.15
				c10.04,2.4,30.56,27.72,83.81,18.33c53.25-9.39,57.62-53.69,57.62-53.69s33.18-12.44,30.99-47.8
				c-2.18-35.36-40.38-37.1-40.38-37.1s-17.24-20.3-45.4-15.93c0,0-20.3-40.6-62.86-41.91C265.88,85.5,260.78,115.33,243.69,121.15z
				"/>
			<path class="st2" d="M497.8,260.44c-22.37,17.93-0.62,50.36,23.64,29.19C545.7,268.46,521.64,241.32,497.8,260.44z"/>
			<path class="st2" d="M484.69,93.17c-17.1-6.05-20.83,18.16-3.2,23.23C499.11,121.48,506.59,100.91,484.69,93.17z"/>
			<path class="st2" d="M205.99,80.6c-13.01,4.7-3.51,20.78,9.34,15.25C228.18,90.32,222.65,74.58,205.99,80.6z"/>
			<path class="st2" d="M300.07,19.51c-9.29,2.21-4.02,13.99,5.22,11.19C314.54,27.91,311.97,16.68,300.07,19.51z"/>
			<path class="st2" d="M210.82,336.54c-17.89,2.99-9.44,25.97,8.44,21.88C237.14,354.32,233.73,332.71,210.82,336.54z"/>
		</g>
		<g>
			<g>
				<path class="st3" d="M425.63,282.17c0,0,37.18-9.37,44.62-18.83c7.43-9.46,0.57-13.39,0.57-13.39s28.35-16.53,29.73-25.7
					c0.72-4.8-1.51-7.13-3.81-8.26c-2.09-1.03-4.23-1.06-4.23-1.06s16.98-12.95,22.74-25.67c5.77-12.73-8.9-14.75-8.9-14.75
					s20.9-45.01,2.23-48.36c-18.67-3.35-25.96,28.25-25.96,28.25s-12.11-12.16-18.59,4.84c-0.59,1.55-1.21,3.33-1.83,5.26
					c-6.28,19.28-14.09,54.98-14.09,54.98s-15.13,1.04-11.99,28.5c0,0-8.18-2.79-8.58,4.51
					C427.14,259.8,425.63,282.17,425.63,282.17z"/>
				<path class="st4" d="M438.69,264.52c-1.04,1.14,39.68-69.01,58.29-108.2C496.97,156.32,467.03,233.47,438.69,264.52z"/>
				<path class="st1" d="M425.63,282.17c0,0,37.18-9.37,44.62-18.83c7.43-9.46,0.57-13.39,0.57-13.39s28.35-16.53,29.73-25.7
					c0.72-4.8-1.51-7.13-3.81-8.26c-25.58,12.15-32.18-15.87-26.78-32.53c4.73-14.62,0.87-14.81-7.75-18.96
					c-6.28,19.28-14.09,54.98-14.09,54.98s-15.13,1.04-11.99,28.5c0,0-8.18-2.79-8.58,4.51
					C427.14,259.8,425.63,282.17,425.63,282.17z"/>
			</g>
			<g>
				<path class="st5" d="M431.94,293.02c0,0,26.96,4.43,34.51,0.35c7.54-4.08,4.17-8.59,4.17-8.59s23.22-2.76,26.73-8.37
					c1.83-2.93,1.03-5.09-0.14-6.48c-1.07-1.26-2.46-1.89-2.46-1.89s14.77-3.65,22.15-10.33c7.38-6.68-1.63-12.17-1.63-12.17
					s26.43-23.49,15.18-30.98c-11.25-7.49-24.98,11.1-24.98,11.1s-4.47-11.39-13.52-2.11c-0.83,0.85-1.73,1.83-2.69,2.92
					c-9.58,10.82-24.81,31.94-24.81,31.94s-10.18-3.62-15.92,15.23c0,0-4.55-4.15-6.89,0.51
					C439.27,278.82,431.94,293.02,431.94,293.02z"/>
				<path class="st4" d="M445.48,285.19c-1.01,0.45,45.52-33.85,68.8-54.19C514.28,231,472.82,272.93,445.48,285.19z"/>
				<path class="st1" d="M431.94,293.02c0,0,26.96,4.43,34.51,0.35c7.54-4.08,4.17-8.59,4.17-8.59s23.22-2.76,26.73-8.37
					c1.83-2.93,1.03-5.09-0.14-6.48c-20.17,0.69-16.53-19.51-8.27-28.86c7.24-8.21,4.77-9.43,0.31-14.59
					c-9.58,10.82-24.81,31.94-24.81,31.94s-10.18-3.62-15.92,15.23c0,0-4.55-4.15-6.89,0.51
					C439.27,278.82,431.94,293.02,431.94,293.02z"/>
			</g>
		</g>
		<g>
			<g>
				<path class="st6" d="M152.69,314.62c0,0,37.18-9.37,44.62-18.83c7.43-9.46,0.56-13.39,0.56-13.39s28.35-16.53,29.73-25.7
					c0.72-4.8-1.51-7.13-3.81-8.26c-2.09-1.03-4.23-1.06-4.23-1.06s16.98-12.95,22.74-25.67c5.77-12.73-8.9-14.75-8.9-14.75
					s20.9-45.01,2.23-48.36c-18.67-3.35-25.96,28.25-25.96,28.25s-12.11-12.16-18.59,4.84c-0.59,1.55-1.21,3.33-1.83,5.26
					c-6.28,19.28-14.09,54.98-14.09,54.98s-15.13,1.04-11.99,28.5c0,0-8.18-2.79-8.58,4.51
					C154.19,292.24,152.69,314.62,152.69,314.62z"/>
				<path class="st7" d="M165.75,296.97c-1.04,1.14,39.68-69.01,58.29-108.2C224.03,188.76,194.09,265.91,165.75,296.97z"/>
				<path class="st1" d="M152.69,314.62c0,0,37.18-9.37,44.62-18.83c7.43-9.46,0.56-13.39,0.56-13.39s28.35-16.53,29.73-25.7
					c0.72-4.8-1.51-7.13-3.81-8.26c-25.58,12.15-32.18-15.87-26.78-32.53c4.73-14.62,0.87-14.81-7.75-18.96
					c-6.28,19.28-14.09,54.98-14.09,54.98s-15.13,1.04-11.99,28.5c0,0-8.18-2.79-8.58,4.51
					C154.19,292.24,152.69,314.62,152.69,314.62z"/>
			</g>
			<g>
				<path class="st3" d="M159,325.46c0,0,26.96,4.43,34.51,0.35c7.54-4.08,4.17-8.59,4.17-8.59s23.22-2.76,26.73-8.37
					c1.83-2.93,1.03-5.09-0.14-6.48c-1.07-1.26-2.46-1.89-2.46-1.89s14.77-3.65,22.15-10.33c7.38-6.68-1.63-12.17-1.63-12.17
					s26.43-23.49,15.18-30.98c-11.25-7.49-24.98,11.1-24.98,11.1s-4.47-11.39-13.52-2.11c-0.83,0.85-1.73,1.83-2.69,2.92
					c-9.58,10.82-24.81,31.94-24.81,31.94s-10.18-3.62-15.92,15.23c0,0-4.55-4.15-6.89,0.51C166.33,311.26,159,325.46,159,325.46z"
					/>
				<path class="st7" d="M172.54,317.63c-1.01,0.45,45.52-33.85,68.8-54.19C241.34,263.44,199.88,305.37,172.54,317.63z"/>
				<path class="st1" d="M159,325.46c0,0,26.96,4.43,34.51,0.35c7.54-4.08,4.17-8.59,4.17-8.59s23.22-2.76,26.73-8.37
					c1.83-2.93,1.03-5.09-0.14-6.48c-20.17,0.69-16.53-19.51-8.27-28.86c7.24-8.21,4.77-9.43,0.31-14.59
					c-9.58,10.82-24.81,31.94-24.81,31.94s-10.18-3.62-15.92,15.23c0,0-4.55-4.15-6.89,0.51C166.33,311.26,159,325.46,159,325.46z"
					/>
			</g>
		</g>
		<g>
			<g>
				<g>
					<path class="st8" d="M139.66,142.15c0,0-0.33-0.86-0.96-2.47c-0.32-0.83-0.67-1.67-1.23-3.31c-0.26-0.75-0.54-1.56-0.84-2.43
						c-0.3-0.87-0.61-1.79-0.85-2.69c-0.51-1.84-1.14-3.85-1.61-6.1c-0.25-1.12-0.54-2.28-0.77-3.49c-0.22-1.22-0.44-2.48-0.67-3.78
						c-0.82-5.22-1.37-11.17-1.29-17.63c0.07-6.46,0.77-13.42,2.32-20.59c1.55-7.16,3.93-14.52,7.27-21.7
						c3.36-7.17,7.63-14.16,12.76-20.6c5.17-6.41,11.14-12.29,17.74-17.29c6.62-4.97,13.8-9.1,21.19-12.26l0.48-0.21l0.16-0.06
						l0.32-0.12l0.64-0.24l1.27-0.48c0.85-0.32,1.69-0.64,2.53-0.95c0.44-0.16,0.79-0.32,1.31-0.47l1.49-0.47
						c0.99-0.31,1.97-0.61,2.95-0.91c1.98-0.66,3.86-1.04,5.75-1.48c0.94-0.21,1.88-0.43,2.81-0.64c0.95-0.15,1.89-0.31,2.82-0.46
						c7.48-1.24,14.82-1.6,21.69-1.1c1.72,0.04,3.4,0.28,5.06,0.46c1.66,0.19,3.29,0.35,4.87,0.68c1.59,0.29,3.14,0.56,4.66,0.87
						c1.5,0.38,2.98,0.75,4.42,1.11c1.45,0.33,2.83,0.81,4.18,1.24c1.35,0.45,2.68,0.83,3.94,1.32c1.25,0.5,2.48,0.98,3.66,1.45
						c0.59,0.24,1.18,0.46,1.75,0.71c0.56,0.27,1.11,0.53,1.65,0.78c2.17,1.03,4.2,1.96,5.98,3.02c1.8,1.02,3.48,1.9,4.89,2.87
						c1.43,0.93,2.71,1.77,3.82,2.49c1.06,0.79,1.97,1.47,2.7,2.02c1.46,1.09,2.24,1.68,2.24,1.68l-5.67,7.8
						c0,0-0.75-0.45-2.15-1.29c-0.7-0.42-1.56-0.94-2.57-1.55c-1.05-0.54-2.26-1.17-3.61-1.86c-1.32-0.74-2.9-1.36-4.57-2.1
						c-1.65-0.78-3.53-1.41-5.5-2.12c-0.49-0.18-1-0.36-1.5-0.54c-0.52-0.16-1.05-0.3-1.58-0.46c-1.07-0.31-2.17-0.62-3.3-0.94
						c-1.13-0.32-2.32-0.52-3.52-0.79c-1.2-0.26-2.42-0.56-3.7-0.7c-1.27-0.19-2.56-0.38-3.87-0.57c-1.32-0.11-2.67-0.22-4.04-0.33
						c-1.36-0.15-2.77-0.14-4.18-0.16c-1.42-0.01-2.85-0.09-4.3,0.04c-5.8,0.15-11.87,1.09-17.9,2.73c-0.75,0.2-1.51,0.4-2.27,0.6
						c-0.75,0.25-1.49,0.51-2.24,0.77c-1.49,0.51-3.05,0.98-4.39,1.61c-0.69,0.29-1.39,0.58-2.09,0.87l-1.05,0.43
						c-0.33,0.12-0.79,0.38-1.17,0.56c-0.81,0.4-1.62,0.8-2.43,1.2l-1.22,0.6l-0.61,0.3l-0.31,0.15l-0.15,0.08
						c0.58-0.26,0.12-0.05,0.24-0.1l-0.07,0.04c-5.69,3.15-11.03,7.01-15.8,11.41c-4.75,4.43-8.88,9.44-12.32,14.71
						c-3.4,5.32-6.07,10.92-8.03,16.51c-3.88,11.24-4.74,22.35-3.87,31.52c0.42,4.6,1.25,8.73,2.19,12.32
						c0.25,0.89,0.5,1.75,0.74,2.59c0.24,0.83,0.55,1.61,0.79,2.37c0.48,1.53,1.08,2.87,1.55,4.11c0.24,0.65,0.48,1.15,0.7,1.61
						c0.22,0.48,0.43,0.92,0.62,1.33c0.3,0.72,0.87,1.81,1.25,2.56c0.78,1.54,1.2,2.37,1.2,2.37L139.66,142.15z"/>
					<polygon class="st8" points="280.49,35.06 295.37,14.58 304,35.38 					"/>
				</g>
				<g>
					<path class="st8" d="M349.24,60.97c0,0,0.25,0.89,0.73,2.55c0.24,0.86,0.51,1.72,0.92,3.41c0.19,0.77,0.4,1.61,0.61,2.5
						c0.22,0.9,0.45,1.84,0.6,2.75c0.34,1.88,0.78,3.94,1.05,6.22c0.14,1.14,0.33,2.32,0.45,3.55c0.1,1.23,0.21,2.51,0.32,3.83
						c0.34,5.28,0.35,11.24-0.32,17.67c-0.66,6.42-1.99,13.3-4.19,20.29c-2.2,6.99-5.24,14.1-9.22,20.95
						c-4,6.83-8.89,13.4-14.58,19.35c-5.73,5.91-12.22,11.22-19.25,15.6c-7.04,4.35-14.57,7.8-22.22,10.27l-0.49,0.17l-0.16,0.05
						l-0.33,0.09l-0.66,0.18l-1.31,0.36c-0.87,0.24-1.74,0.48-2.61,0.72c-0.46,0.12-0.82,0.24-1.35,0.35l-1.52,0.33
						c-1.01,0.21-2.02,0.43-3.03,0.64c-2.03,0.48-3.94,0.68-5.86,0.95c-0.96,0.13-1.91,0.25-2.86,0.38
						c-0.96,0.07-1.91,0.13-2.85,0.2c-7.57,0.55-14.91,0.24-21.7-0.88c-1.71-0.19-3.36-0.59-5-0.92c-1.63-0.34-3.24-0.65-4.79-1.12
						c-1.55-0.44-3.08-0.85-4.56-1.29c-1.46-0.51-2.9-1.02-4.3-1.51c-1.41-0.46-2.74-1.06-4.05-1.62c-1.3-0.57-2.59-1.07-3.8-1.67
						c-1.2-0.61-2.38-1.2-3.51-1.78c-0.57-0.29-1.13-0.57-1.67-0.86c-0.53-0.32-1.06-0.63-1.57-0.93c-2.06-1.22-4-2.34-5.68-3.55
						c-1.7-1.18-3.29-2.21-4.61-3.31c-1.34-1.06-2.54-2.01-3.58-2.83c-0.99-0.89-1.82-1.64-2.5-2.25c-1.35-1.22-2.07-1.87-2.07-1.87
						l6.35-7.25c0,0,0.7,0.52,2.03,1.48c0.66,0.48,1.47,1.08,2.42,1.78c1,0.64,2.14,1.37,3.42,2.19c1.25,0.86,2.76,1.62,4.35,2.5
						c1.57,0.93,3.38,1.72,5.29,2.61c0.48,0.22,0.96,0.45,1.45,0.68c0.5,0.21,1.02,0.4,1.54,0.6c1.04,0.4,2.11,0.82,3.2,1.24
						c1.1,0.42,2.27,0.73,3.43,1.11c1.17,0.36,2.36,0.77,3.62,1.04c1.24,0.3,2.51,0.61,3.81,0.92c1.31,0.23,2.64,0.46,4,0.7
						c1.35,0.28,2.74,0.39,4.15,0.54c1.41,0.14,2.83,0.34,4.28,0.35c5.79,0.38,11.92-0.01,18.07-1.09c0.77-0.13,1.54-0.26,2.32-0.39
						c0.77-0.18,1.53-0.37,2.31-0.56c1.53-0.38,3.13-0.7,4.52-1.2c0.72-0.23,1.44-0.45,2.16-0.68l1.08-0.33
						c0.34-0.09,0.82-0.3,1.22-0.45c0.84-0.32,1.68-0.65,2.53-0.98l1.27-0.49l0.63-0.25l0.32-0.12l0.16-0.06
						c-0.61,0.21-0.13,0.04-0.25,0.08l0.07-0.03c5.95-2.62,11.62-5.97,16.78-9.92c5.13-3.98,9.7-8.59,13.61-13.53
						c3.87-4.98,7.04-10.32,9.5-15.71c4.89-10.84,6.76-21.82,6.73-31.04c0-4.62-0.45-8.81-1.06-12.47c-0.17-0.91-0.34-1.79-0.5-2.64
						c-0.17-0.85-0.4-1.65-0.57-2.43c-0.33-1.56-0.81-2.96-1.17-4.23c-0.18-0.66-0.37-1.19-0.55-1.67
						c-0.18-0.49-0.34-0.96-0.49-1.39c-0.23-0.74-0.7-1.88-1.01-2.66c-0.64-1.61-0.98-2.47-0.98-2.47L349.24,60.97z"/>
					<polygon class="st8" points="199.23,154.77 182.55,173.8 175.85,152.3 					"/>
				</g>
			</g>
		</g>
		<g>
			<g>
				<ellipse class="st1" cx="98.74" cy="347.74" rx="81.62" ry="6.56"/>
				<ellipse class="st1" cx="98.74" cy="347.74" rx="63.52" ry="3.7"/>
			</g>
			<g>
				<g>
					<g>
						<path class="st9" d="M172.96,85.73v245.18c0,8.09-6.56,14.66-14.66,14.66H39.17c-8.1,0-14.66-6.56-14.66-14.66V85.73
							c0-8.1,6.56-14.66,14.66-14.66h119.14C166.4,71.07,172.96,77.63,172.96,85.73z"/>
						<path class="st1" d="M170.05,110.26v221.3c0,6.12-4.98,11.1-11.1,11.1H38.52c-6.12,0-11.1-4.98-11.1-11.1v-78
							C99.78,224.34,157.05,178.16,170.05,110.26z"/>
						<path class="st10" d="M162.65,90.28v236.07c0,4.75-3.85,8.6-8.59,8.6H43.42c-4.75,0-8.59-3.85-8.59-8.6V90.28
							c0-4.75,3.85-8.6,8.59-8.6h31.25v1.65c0,2.31,1.87,4.18,4.18,4.18h39.77c2.31,0,4.18-1.87,4.18-4.18v-1.65h31.25
							C158.8,81.68,162.65,85.53,162.65,90.28z"/>
						<path class="st11" d="M83.26,79.79c0,1.35-1.09,2.44-2.44,2.44c-1.35,0-2.44-1.09-2.44-2.44c0-1.35,1.09-2.44,2.44-2.44
							C82.17,77.35,83.26,78.44,83.26,79.79z"/>
						<path class="st11" d="M116.51,82.23H90.41c-1.27,0-2.3-1.03-2.3-2.3v-0.28c0-1.27,1.03-2.3,2.3-2.3h26.09
							c1.27,0,2.3,1.03,2.3,2.3v0.28C118.81,81.2,117.78,82.23,116.51,82.23z"/>
					</g>
					<g class="st12">
						<path class="st13" d="M154.05,86.17h-27.24c-1.18,3.39-4.4,5.83-8.19,5.83H78.85c-3.79,0-7.01-2.44-8.19-5.83h-0.07
							l-31.28,31.28v115.01l118.85-118.85V90.28C158.16,88.01,156.32,86.17,154.05,86.17z"/>
						<polygon class="st13" points="39.31,263.38 39.31,296.59 158.16,177.73 158.16,144.52 						"/>
						<path class="st13" d="M39.31,314.72v11.64c0,2.27,1.84,4.12,4.11,4.12h95.16l19.58-19.58V195.87L39.31,314.72z"/>
					</g>
					<path class="st14" d="M172.96,85.73v3.65c-1.56-3.13-3.75-7.32-5.29-9.52c-2.66-3.81-8.56-4.57-13.32-4.57H42.98
						c-3.34,0-6.56,1.29-8.97,3.62c-1.2,1.16-2.16,2.54-2.83,4.04c-0.68,1.5-1.07,3.13-1.13,4.8l-5.54,145.39V85.73
						c0-8.1,6.56-14.66,14.66-14.66h119.14C166.4,71.07,172.96,77.63,172.96,85.73z"/>
				</g>
				<g>
					<path class="st13" d="M143.27,238.97H54.2c-4.2,0-7.61-3.41-7.61-7.61v-91.72c0-4.2,3.41-7.61,7.61-7.61h89.08
						c4.2,0,7.61,3.41,7.61,7.61v91.72C150.89,235.56,147.48,238.97,143.27,238.97z"/>
					<g>
						<path class="st15" d="M139.79,185.5c0,2.23-0.18,4.42-0.52,6.55c-3.14,19.57-20.09,34.51-40.53,34.51
							c-22.68,0-41.06-18.38-41.06-41.06c0-5.27,0.99-10.3,2.79-14.92c5.98-15.29,20.85-26.13,38.26-26.13
							C121.41,144.44,139.79,162.82,139.79,185.5z"/>
						<g>
							<path class="st11" d="M85.96,160.47c4-1.38,8.3-2.13,12.78-2.13c4.01,0,7.88,0.6,11.52,1.72c1,0.31,2.07-0.26,2.38-1.26
								c0.31-1-0.26-2.07-1.26-2.38c-4-1.23-8.24-1.89-12.64-1.89c-4.91,0-9.63,0.82-14.02,2.34c-0.99,0.34-1.52,1.43-1.18,2.42
								C83.88,160.28,84.97,160.81,85.96,160.47L85.96,160.47z"/>
						</g>
						<g>
							<path class="st16" d="M107.26,193.14c1.29,0.86,2.37,2.04,3.23,3.54c0.86,1.5,1.28,3.41,1.28,5.72
								c0,1.85-0.45,3.58-1.34,5.17c-0.89,1.59-2.21,2.91-3.96,3.96c-1.75,1.05-3.83,1.68-6.24,1.89v3.2h-4.41v-3.3
								c-3.95-0.45-7.45-1.78-10.49-3.99l3.36-5.93c1.01,0.73,2.16,1.38,3.44,1.94c1.28,0.56,2.51,0.96,3.7,1.21v-10.33
								c-2.59-1.08-4.65-2.43-6.19-4.04c-1.54-1.61-2.31-3.81-2.31-6.61c0-3.08,0.95-5.61,2.86-7.6c1.91-1.99,4.48-3.2,7.74-3.62
								v-3.46h4.41v3.51c2.03,0.18,3.79,0.57,5.3,1.18c1.5,0.61,3.01,1.41,4.51,2.39l-2.88,5.82c-2.59-1.4-4.9-2.27-6.92-2.62v9.6
								l0.26,0.1C104.41,191.52,105.97,192.28,107.26,193.14z M95.2,184.99c0,1.36,0.91,2.61,2.73,3.72v-7.34
								C96.11,181.93,95.2,183.13,95.2,184.99z M102.86,205.1c0.66-0.68,1-1.58,1-2.7c0-1.61-1.21-3.04-3.62-4.3v8.39
								C101.32,206.24,102.19,205.78,102.86,205.1z"/>
						</g>
						<path class="st17" d="M139.27,192.04c-3.14,19.57-20.09,34.51-40.53,34.51c-22.68,0-41.06-18.38-41.06-41.06
							c0-5.27,0.99-10.3,2.79-14.92C71.83,205.41,115.86,217.35,139.27,192.04z"/>
					</g>
				</g>
				<g>
					<g>
						<path class="st5" d="M135.59,280.97H61.88c-5.84,0-10.57-4.73-10.57-10.57v-1.28c0-5.84,4.73-10.57,10.57-10.57h73.71
							c5.84,0,10.57,4.73,10.57,10.57v1.28C146.17,276.24,141.43,280.97,135.59,280.97z"/>
						<g>
							<g>
								<path class="st13" d="M61,274.77v-10.21h3.12l0.86,6.23l0.86-6.23h3.14v10.21H67.1v-7.36l-1.18,7.36h-1.83l-1.25-7.36v7.36
									H61z"/>
								<path class="st13" d="M70.72,272.17v-3.5c0-0.82,0.23-1.48,0.7-1.97c0.46-0.49,1.1-0.73,1.91-0.73s1.44,0.24,1.91,0.73
									c0.46,0.49,0.7,1.14,0.7,1.97v3.5c0,1.8-0.87,2.7-2.6,2.7S70.72,273.97,70.72,272.17z M73.69,273.08
									c0.08-0.12,0.12-0.28,0.12-0.49v-4.26c0-0.51-0.16-0.76-0.49-0.76s-0.49,0.25-0.49,0.76v4.26c0,0.21,0.04,0.37,0.12,0.49
									s0.2,0.18,0.37,0.18S73.61,273.2,73.69,273.08z"/>
								<path class="st13" d="M79.79,273.84v0.93h-2.14V264.5h2.14v1.99c0.33-0.34,0.72-0.51,1.17-0.51c0.67,0,1.16,0.2,1.45,0.6
									c0.29,0.4,0.44,0.98,0.44,1.73v4.2c0,0.71-0.15,1.29-0.45,1.72s-0.76,0.65-1.38,0.65
									C80.44,274.87,80.03,274.52,79.79,273.84z M80.61,273.11c0.06-0.09,0.1-0.21,0.11-0.34c0.01-0.14,0.02-0.35,0.02-0.65v-3.63
									c0-0.31-0.03-0.54-0.08-0.69s-0.17-0.23-0.36-0.23c-0.2,0-0.33,0.08-0.4,0.23s-0.11,0.37-0.11,0.67v3.65
									c0,0.38,0.03,0.66,0.09,0.85c0.06,0.19,0.21,0.28,0.43,0.28C80.45,273.25,80.56,273.2,80.61,273.11z"/>
								<path class="st13" d="M84.54,265.48v-1.45h2.08v1.45H84.54z M84.54,274.77v-8.7h2.08v8.7H84.54z"/>
								<path class="st13" d="M88.4,274.77V264.5h2.12v10.27H88.4z"/>
								<path class="st13" d="M92.81,274.13c-0.39-0.49-0.58-1.23-0.58-2.2v-3.5c0-0.8,0.23-1.41,0.69-1.83
									c0.46-0.42,1.1-0.63,1.93-0.63c1.67,0,2.51,0.82,2.51,2.46v0.63c0,0.63-0.01,1.15-0.02,1.55h-3.02v1.69
									c0,0.3,0.03,0.54,0.09,0.71s0.2,0.26,0.4,0.26c0.16,0,0.27-0.05,0.34-0.14c0.07-0.1,0.11-0.2,0.12-0.33s0.02-0.3,0.02-0.54
									v-0.84h2.07v0.5c0,1.01-0.2,1.76-0.59,2.24c-0.39,0.48-1.07,0.72-2.03,0.72C93.84,274.87,93.2,274.62,92.81,274.13z
									 M95.28,269.57v-1.12c0-0.63-0.15-0.94-0.46-0.94c-0.35,0-0.52,0.31-0.52,0.94v1.12H95.28z"/>
								<path class="st13" d="M103.62,274.77l-1.09-10.21h2l0.57,6.44l0.57-6.44h1.9l0.55,6.44l0.55-6.44h2.02l-1.12,10.21h-2.45
									l-0.51-4.92l-0.49,4.92H103.62z"/>
								<path class="st13" d="M112.4,274.19c-0.25-0.45-0.37-1.09-0.37-1.92c0-0.68,0.09-1.21,0.27-1.57s0.43-0.63,0.74-0.8
									c0.32-0.17,0.8-0.36,1.45-0.56l0.57-0.19v-0.02v-0.87c0-0.23-0.05-0.41-0.14-0.53c-0.09-0.12-0.2-0.18-0.33-0.18
									c-0.11,0-0.21,0.05-0.29,0.15c-0.08,0.1-0.12,0.24-0.12,0.42v0.52h-2.02v-0.29c0-0.86,0.2-1.47,0.6-1.83
									c0.4-0.36,1.05-0.55,1.96-0.55c0.72,0,1.31,0.19,1.76,0.56c0.45,0.38,0.68,0.91,0.68,1.6v6.63h-2.07v-1.03
									c-0.1,0.36-0.27,0.63-0.49,0.83c-0.23,0.2-0.49,0.3-0.8,0.3C113.11,274.87,112.65,274.64,112.4,274.19z M114.94,273.05
									c0.07-0.13,0.1-0.29,0.1-0.48v-2.43c-0.31,0.12-0.54,0.27-0.68,0.45c-0.15,0.18-0.22,0.44-0.22,0.76v1.12
									c0,0.52,0.15,0.77,0.46,0.77C114.76,273.25,114.87,273.18,114.94,273.05z"/>
								<path class="st13" d="M118.89,274.77V264.5h2.12v10.27H118.89z"/>
								<path class="st13" d="M122.79,274.77V264.5h2.12v10.27H122.79z"/>
								<path class="st13" d="M127.21,274.13c-0.39-0.49-0.58-1.23-0.58-2.2v-3.5c0-0.8,0.23-1.41,0.69-1.83
									c0.46-0.42,1.1-0.63,1.93-0.63c1.67,0,2.51,0.82,2.51,2.46v0.63c0,0.63-0.01,1.15-0.02,1.55h-3.02v1.69
									c0,0.3,0.03,0.54,0.09,0.71s0.2,0.26,0.4,0.26c0.16,0,0.27-0.05,0.34-0.14c0.07-0.1,0.11-0.2,0.12-0.33s0.02-0.3,0.02-0.54
									v-0.84h2.07v0.5c0,1.01-0.2,1.76-0.59,2.24c-0.39,0.48-1.07,0.72-2.03,0.72C128.24,274.87,127.59,274.62,127.21,274.13z
									 M129.68,269.57v-1.12c0-0.63-0.15-0.94-0.46-0.94c-0.35,0-0.52,0.31-0.52,0.94v1.12H129.68z"/>
								<path class="st13" d="M134.11,274.52c-0.21-0.23-0.31-0.6-0.31-1.11v-5.43h-0.58v-1.58h0.58v-1.84h2.02v1.84h0.59v1.58
									h-0.59v4.89c0,0.15,0.01,0.26,0.04,0.33c0.02,0.07,0.09,0.11,0.19,0.11c0.08,0,0.15,0,0.23-0.01s0.12-0.01,0.14-0.01v1.43
									c-0.12,0.03-0.29,0.07-0.52,0.1c-0.23,0.04-0.45,0.05-0.66,0.05C134.7,274.87,134.32,274.75,134.11,274.52z"/>
							</g>
						</g>
					</g>
					<g>
						<path class="st8" d="M142.99,296.22H54.48c-1.75,0-3.17-1.42-3.17-3.17v-0.38c0-1.75,1.42-3.17,3.17-3.17h88.51
							c1.75,0,3.17,1.42,3.17,3.17v0.38C146.17,294.8,144.74,296.22,142.99,296.22z"/>
						<path class="st8" d="M142.99,306.53H54.48c-1.75,0-3.17-1.42-3.17-3.17v-0.38c0-1.75,1.42-3.17,3.17-3.17h88.51
							c1.75,0,3.17,1.42,3.17,3.17v0.38C146.17,305.11,144.74,306.53,142.99,306.53z"/>
					</g>
				</g>
			</g>
		</g>
		<g>
			<path class="st5" d="M492.43,22.07v52.54c0,4.08-3.31,7.37-7.38,7.37h-95.8c-4.08,0-7.38-3.3-7.38-7.37V22.07
				c0-4.08,3.31-7.38,7.38-7.38h95.8c1.89,0,3.61,0.71,4.92,1.87C491.48,17.92,492.43,19.88,492.43,22.07z"/>
			<path class="st1" d="M490.74,21.54v53.61c0,2.84-2.32,5.16-5.16,5.16h-96.87c-2.85,0-5.16-2.32-5.16-5.16v-6.71
				c65.43,2.55,87.64-29.05,95.16-52.06h6.87C488.43,16.38,490.74,18.69,490.74,21.54z"/>
			<g>
				<path class="st13" d="M417.83,51.6h-20.67c-1.62,0-2.92-1.31-2.92-2.92v-0.35c0-1.62,1.31-2.92,2.92-2.92h20.67
					c1.62,0,2.92,1.31,2.92,2.92v0.35C420.75,50.29,419.44,51.6,417.83,51.6z"/>
				<path class="st1" d="M447.48,51.6h-20.67c-1.62,0-2.92-1.31-2.92-2.92v-0.35c0-1.62,1.31-2.92,2.92-2.92h20.67
					c1.62,0,2.92,1.31,2.92,2.92v0.35C450.41,50.29,449.1,51.6,447.48,51.6z"/>
				<path class="st13" d="M477.14,51.6h-20.67c-1.62,0-2.92-1.31-2.92-2.92v-0.35c0-1.62,1.31-2.92,2.92-2.92h20.67
					c1.61,0,2.92,1.31,2.92,2.92v0.35C480.06,50.29,478.75,51.6,477.14,51.6z"/>
			</g>
			<g>
				<path class="st15" d="M463.59,65.9c0,3.92-3.18,7.09-7.09,7.09c-3.92,0-7.09-3.18-7.09-7.09c0-3.92,3.18-7.09,7.09-7.09
					C460.41,58.81,463.59,61.98,463.59,65.9z"/>
				<path class="st5" d="M474.52,65.9c0,3.92-3.18,7.09-7.09,7.09c-3.92,0-7.09-3.18-7.09-7.09c0-3.92,3.18-7.09,7.09-7.09
					C471.34,58.81,474.52,61.98,474.52,65.9z"/>
			</g>
			<circle class="st15" cx="402.22" cy="31.01" r="6.63"/>
			<g>
				<path class="st13" d="M452.39,34.99c-0.63,0-1.22-0.09-1.75-0.27c-0.61-0.2-1.12-0.51-1.52-0.92c-0.72-0.74-1.06-1.79-1.04-3.12
					c0.02-0.72,0.18-1.38,0.48-1.94c0.26-0.49,0.62-0.91,1.08-1.25c0.72-0.54,1.7-0.86,2.6-0.86h0.02c0.62,0,1.05,0.08,1.46,0.26
					c0.48,0.21,0.93,0.57,1.44,1.13l0.08,0.09l-1.25,1.48l-0.1-0.1c-0.08-0.08-0.22-0.2-0.39-0.32c-0.41-0.28-0.83-0.41-1.27-0.41
					c-0.5,0-0.98,0.21-1.32,0.59c-0.34,0.38-0.53,0.88-0.53,1.42c0,0.56,0.18,1.07,0.5,1.46c0.24,0.29,0.67,0.64,1.34,0.64
					c0.51,0,0.97-0.13,1.34-0.39c0.16-0.11,0.28-0.23,0.33-0.3l0.1-0.11l1.25,1.38l-0.06,0.09c-0.09,0.14-0.29,0.42-0.62,0.69
					c-0.27,0.22-0.56,0.4-0.88,0.53C453.3,34.91,452.85,34.99,452.39,34.99z"/>
				<path class="st13" d="M460.74,34.52l-0.51-1.67h-2.43l-0.52,1.67h-2.2l2.92-8.02h2.03l2.9,8.02H460.74z M459.93,31.34l-0.8-2.13
					l-0.82,2.13H459.93z"/>
				<path class="st13" d="M467.06,34.53l-1.39-2.34h-0.45v2.34h-2.15v-8.1h3.24c0.49,0,0.94,0.07,1.32,0.22
					c0.36,0.12,0.68,0.33,0.92,0.59c0.48,0.5,0.71,1.22,0.71,2.07c0,0.53-0.09,1-0.31,1.4c-0.2,0.4-0.51,0.71-0.92,0.93l-0.12,0.08
					l1.72,2.81H467.06z M465.18,29.96h0.65c0.34,0,0.91-0.11,0.91-0.78c0-0.24-0.07-0.42-0.2-0.55c-0.16-0.15-0.4-0.23-0.71-0.23
					h-0.65V29.96z"/>
				<path class="st13" d="M469.97,34.52v-8.09h2.88c0.62,0,1.21,0.09,1.73,0.29c0.5,0.19,0.95,0.47,1.31,0.84
					c0.36,0.35,0.66,0.78,0.85,1.27s0.29,1.05,0.29,1.64c0,1.2-0.38,2.21-1.09,2.91c-0.73,0.74-1.8,1.13-3.06,1.13H469.97z
					 M471.89,32.22h0.85c0.61,0,1.17-0.17,1.56-0.49c0.4-0.32,0.62-0.76,0.62-1.24c0-0.48-0.21-0.91-0.6-1.25
					c-0.37-0.32-0.88-0.49-1.42-0.49h-1.01V32.22z"/>
			</g>
			<path class="st18" d="M489.97,16.57l-99.38,2.96c-2.26,0.07-4.11,1.81-4.32,4.06l-4.39,47.69v-49.2c0-4.08,3.3-7.38,7.38-7.38
				h95.8C486.93,14.69,488.66,15.4,489.97,16.57z"/>
		</g>
		<g>
			<g>
				<path class="st6" d="M180.39,91.71l-75.37,63.6c-2.23,1.88-5.57,1.6-7.46-0.63l-32.9-38.99c-1.88-2.23-1.6-5.57,0.63-7.46
					l75.37-63.6c2.23-1.88,5.57-1.6,7.46,0.63l32.9,38.99C182.9,86.49,182.62,89.83,180.39,91.71z"/>
				<path class="st10" d="M169.1,94.76l-59.17,49.93c-4.14-4.91-11.48-5.53-16.39-1.39L75.2,121.57c4.91-4.14,5.53-11.48,1.39-16.39
					l59.17-49.93c4.14,4.91,11.48,5.53,16.39,1.39l18.33,21.73C165.58,82.51,164.96,89.85,169.1,94.76z"/>
				
					<ellipse transform="matrix(0.0844 -0.9964 0.9964 0.0844 12.8613 213.9389)" class="st6" cx="122.84" cy="99.97" rx="21.11" ry="21.11"/>
				<g>
					<path class="st13" d="M165.97,83.8l-10.93,9.23c-0.88,0.75-2.21,0.63-2.95-0.25l-0.16-0.19c-0.75-0.88-0.63-2.21,0.25-2.95
						l10.93-9.23c0.88-0.75,2.21-0.63,2.95,0.25l0.16,0.19C166.97,81.73,166.85,83.05,165.97,83.8z"/>
					<path class="st13" d="M110.58,130.54l-10.93,9.23c-0.88,0.75-2.21,0.63-2.95-0.25l-0.16-0.19c-0.75-0.88-0.63-2.21,0.25-2.95
						l10.93-9.23c0.88-0.75,2.21-0.63,2.95,0.25l0.16,0.19C111.58,128.47,111.47,129.79,110.58,130.54z"/>
				</g>
				<g>
					<path class="st13" d="M127.31,95.62c1.12-0.13,2.28,0.02,3.47,0.46c1.19,0.44,2.32,1.3,3.41,2.58c0.87,1.03,1.43,2.2,1.69,3.51
						c0.25,1.31,0.14,2.66-0.34,4.07c-0.48,1.41-1.35,2.74-2.59,3.99l1.51,1.78l-2.46,2.07l-1.56-1.84
						c-2.42,1.61-4.99,2.51-7.73,2.71l-0.92-4.89c0.91-0.07,1.85-0.25,2.83-0.53c0.98-0.29,1.85-0.64,2.63-1.07l-4.86-5.76
						c-1.95,0.61-3.74,0.83-5.35,0.66c-1.62-0.17-3.08-1.04-4.4-2.6c-1.45-1.72-2.11-3.58-1.99-5.59c0.12-2.01,1-3.9,2.61-5.66
						l-1.63-1.93l2.46-2.07l1.65,1.96c1.21-0.86,2.38-1.47,3.51-1.84c1.13-0.37,2.34-0.63,3.64-0.79l1.13,4.61
						c-2.1,0.44-3.8,1.04-5.1,1.8l4.52,5.35l0.2-0.06C124.96,96.06,126.19,95.75,127.31,95.62z M116.75,96.75
						c0.64,0.76,1.73,1.03,3.27,0.79l-3.46-4.1C115.81,94.62,115.87,95.72,116.75,96.75z M130.49,104.37
						c0.05-0.69-0.19-1.35-0.72-1.98c-0.76-0.9-2.1-1.13-4.04-0.7l3.95,4.68C130.17,105.73,130.44,105.06,130.49,104.37z"/>
				</g>
				<path class="st1" d="M146.07,45.85l34.03,40.33c0.88,1.04,0.75,2.61-0.3,3.49l-76.71,64.73c-1.04,0.88-2.61,0.75-3.49-0.3
					l-6.84-8.11c49.2-36.12,44.88-75.51,40.04-92.18l9.78-8.25C143.63,44.67,145.19,44.81,146.07,45.85z"/>
			</g>
			<g>
				<path class="st6" d="M262.37,76.03l-64.31-15.44c-2.55-0.61-4.12-3.17-3.51-5.72l7.75-32.26c0.61-2.55,3.17-4.12,5.72-3.51
					l64.31,15.44c2.55,0.61,4.12,3.17,3.51,5.72l-7.75,32.26C267.48,75.07,264.92,76.64,262.37,76.03z"/>
				<path class="st10" d="M254.78,70.68l-47.53-11.41c1.34-5.6-2.1-11.23-7.71-12.58l3.49-14.53c5.6,1.34,11.23-2.1,12.58-7.71
					l47.53,11.41c-1.34,5.6,2.1,11.23,7.71,12.58l-3.49,14.53C261.76,61.63,256.13,65.08,254.78,70.68z"/>
				
					<ellipse transform="matrix(0.1584 -0.9874 0.9874 0.1584 150.9818 272.262)" class="st6" cx="235.2" cy="47.57" rx="14.62" ry="14.62"/>
				<g>
					<path class="st13" d="M261.92,64.99l-9.63-2.31c-0.78-0.19-1.26-0.97-1.07-1.75l0.04-0.17c0.19-0.78,0.97-1.26,1.75-1.07
						l9.63,2.31c0.78,0.19,1.26,0.97,1.07,1.75l-0.04,0.17C263.48,64.7,262.7,65.18,261.92,64.99z"/>
					<path class="st13" d="M213.11,53.27l-9.63-2.31c-0.78-0.19-1.26-0.97-1.07-1.75l0.04-0.17c0.19-0.78,0.97-1.26,1.75-1.07
						l9.63,2.31c0.78,0.19,1.26,0.97,1.07,1.75l-0.04,0.17C214.67,52.98,213.89,53.46,213.11,53.27z"/>
				</g>
				<g>
					<path class="st13" d="M239.46,48.28c0.53,0.57,0.92,1.28,1.17,2.12c0.24,0.84,0.23,1.83-0.04,2.96
						c-0.22,0.91-0.64,1.71-1.27,2.38c-0.63,0.68-1.43,1.17-2.41,1.48c-0.98,0.31-2.08,0.37-3.29,0.19l-0.38,1.57l-2.17-0.52
						l0.39-1.62c-1.89-0.69-3.45-1.76-4.69-3.2l2.35-2.52c0.41,0.48,0.9,0.93,1.46,1.36c0.56,0.43,1.12,0.77,1.68,1.03l1.22-5.08
						c-1.14-0.84-2-1.74-2.57-2.72c-0.57-0.97-0.68-2.15-0.35-3.52c0.36-1.51,1.13-2.65,2.3-3.4c1.17-0.75,2.58-1.04,4.23-0.87
						l0.41-1.7l2.17,0.52l-0.41,1.73c0.98,0.33,1.8,0.73,2.46,1.21c0.67,0.48,1.31,1.05,1.94,1.71l-2.11,2.52
						c-1.11-0.99-2.14-1.69-3.09-2.11l-1.13,4.72l0.12,0.08C238.25,47.15,238.92,47.7,239.46,48.28z M234.49,42.84
						c-0.16,0.67,0.14,1.39,0.9,2.15l0.87-3.61C235.3,41.45,234.71,41.93,234.49,42.84z M235.88,53.63
						c0.41-0.26,0.68-0.66,0.81-1.21c0.19-0.79-0.23-1.64-1.27-2.54l-0.99,4.13C234.99,54.02,235.47,53.89,235.88,53.63z"/>
				</g>
				<path class="st1" d="M274.93,38.31l-8.53,35.54c-0.22,0.92-1.15,1.49-2.07,1.27l-67.59-16.23c-0.92-0.22-1.49-1.15-1.27-2.07
					l1.72-7.14c40.34,12.62,60.54-5.95,67.86-15.5l8.62,2.07C274.58,36.47,275.15,37.4,274.93,38.31z"/>
			</g>
			<g>
				<path class="st6" d="M338.45,92.52l-40.8-31.26c-2.1-1.61-2.49-4.61-0.89-6.71l15.1-19.7c1.61-2.1,4.61-2.49,6.71-0.89
					l40.8,31.26c2.1,1.61,2.49,4.61,0.89,6.71l-15.1,19.7C343.55,93.73,340.55,94.13,338.45,92.52z"/>
				<path class="st10" d="M333.7,85.4L305.77,64c3.53-4.61,2.66-11.21-1.95-14.75l4.76-6.21c4.61,3.53,11.21,2.66,14.75-1.95
					l27.92,21.4c-3.53,4.61-2.66,11.21,1.95,14.75l-4.76,6.21C343.83,79.91,337.23,80.79,333.7,85.4z"/>
				
					<ellipse transform="matrix(0.4926 -0.8702 0.8702 0.4926 111.6424 317.9733)" class="st6" cx="328.51" cy="63.24" rx="11.78" ry="11.78"/>
				<g>
					<path class="st13" d="M342.49,84.83l-6.34-4.86c-0.51-0.39-0.61-1.13-0.22-1.64l0.09-0.11c0.39-0.51,1.13-0.61,1.64-0.22
						l6.34,4.86c0.51,0.39,0.61,1.13,0.22,1.64l-0.09,0.11C343.74,85.12,343.01,85.22,342.49,84.83z"/>
					<path class="st13" d="M310.38,60.21l-6.34-4.86c-0.51-0.39-0.61-1.13-0.22-1.64l0.09-0.11c0.39-0.51,1.13-0.61,1.64-0.22
						l6.34,4.86c0.51,0.39,0.61,1.13,0.22,1.64L312.02,60C311.62,60.51,310.89,60.61,310.38,60.21z"/>
				</g>
				<g>
					<path class="st13" d="M331.42,65.16c0.21,0.6,0.26,1.25,0.17,1.94c-0.1,0.7-0.43,1.42-1,2.17c-0.46,0.6-1.03,1.05-1.71,1.34
						c-0.68,0.29-1.44,0.39-2.26,0.3c-0.83-0.09-1.65-0.41-2.49-0.94l-0.79,1.03l-1.43-1.09l0.82-1.07
						c-1.17-1.13-1.97-2.42-2.4-3.89l2.55-1.08c0.15,0.49,0.36,0.98,0.63,1.48c0.27,0.5,0.57,0.93,0.9,1.31l2.56-3.34
						c-0.57-0.99-0.9-1.94-1-2.84c-0.1-0.9,0.2-1.8,0.89-2.71c0.76-1,1.7-1.58,2.81-1.75c1.11-0.17,2.24,0.08,3.4,0.75l0.86-1.12
						l1.43,1.09l-0.87,1.14c0.61,0.56,1.09,1.12,1.42,1.69c0.33,0.57,0.62,1.2,0.87,1.89l-2.38,1.17c-0.49-1.09-1.02-1.95-1.59-2.56
						l-2.38,3.1l0.06,0.1C330.9,63.93,331.21,64.56,331.42,65.16z M329.54,59.53c-0.34,0.44-0.35,1.07-0.04,1.88l1.82-2.38
						C330.59,58.77,330,58.93,329.54,59.53z M327.03,67.94c0.38-0.06,0.71-0.26,0.99-0.63c0.4-0.52,0.36-1.28-0.1-2.29l-2.08,2.71
						C326.25,67.93,326.65,67.99,327.03,67.94z"/>
				</g>
				<path class="st1" d="M360.81,69.43l-17.92,23.39c-0.46,0.6-1.33,0.72-1.94,0.26l-44.48-34.09c-0.6-0.46-0.72-1.33-0.26-1.94
					l3.6-4.7c25.59,22.51,46.55,15.44,55.07,10.8l5.67,4.34C361.16,67.96,361.27,68.83,360.81,69.43z"/>
			</g>
		</g>
		<g>
			<g>
				<g>
					<ellipse class="st1" cx="437.01" cy="350.59" rx="63.56" ry="5.11"/>
					<ellipse class="st1" cx="437.01" cy="350.59" rx="49.46" ry="2.88"/>
				</g>
				<g>
					<g>
						<rect x="390.62" y="301.03" class="st19" width="86.85" height="16.44"/>
						<rect x="452.85" y="303.9" class="st17" width="19.64" height="10.72"/>
						<rect x="432.92" y="303.9" class="st17" width="14.63" height="10.72"/>
						<rect x="423.03" y="303.9" class="st17" width="6" height="10.72"/>
						<polygon class="st20" points="477.47,301.04 477.47,301.17 390.62,307.47 390.62,301.04 						"/>
					</g>
					<g>
						<rect x="375.64" y="317.47" class="st19" width="86.85" height="16.45"/>
						<rect x="437.86" y="320.33" class="st17" width="19.64" height="10.72"/>
						<rect x="417.94" y="320.33" class="st17" width="14.63" height="10.72"/>
						<rect x="408.05" y="320.33" class="st17" width="6" height="10.72"/>
						<polygon class="st20" points="462.49,317.47 462.49,317.61 375.64,323.91 375.64,317.47 						"/>
					</g>
					<g>
						<rect x="386.65" y="333.92" class="st19" width="86.85" height="16.44"/>
						<rect x="448.88" y="336.77" class="st17" width="19.64" height="10.72"/>
						<rect x="428.95" y="336.77" class="st17" width="14.63" height="10.72"/>
						<rect x="419.06" y="336.77" class="st17" width="6" height="10.72"/>
						<polygon class="st20" points="473.5,333.91 473.5,334.05 386.65,340.35 386.65,333.91 						"/>
					</g>
				</g>
				<g>
					<g>
						<rect x="386.65" y="252.38" class="st19" width="86.85" height="16.44"/>
						<rect x="448.88" y="255.24" class="st17" width="19.64" height="10.72"/>
						<rect x="428.95" y="255.24" class="st17" width="14.63" height="10.72"/>
						<rect x="419.06" y="255.24" class="st17" width="6" height="10.72"/>
						<polygon class="st20" points="473.5,252.38 473.5,252.51 386.65,258.81 386.65,252.38 						"/>
					</g>
					<g>
						<rect x="381.63" y="268.82" class="st19" width="86.85" height="16.45"/>
						<rect x="443.86" y="271.68" class="st17" width="19.64" height="10.72"/>
						<rect x="423.94" y="271.68" class="st17" width="14.63" height="10.72"/>
						<rect x="414.05" y="271.68" class="st17" width="6" height="10.72"/>
						<polygon class="st20" points="468.49,268.82 468.49,268.95 381.64,275.25 381.64,268.82 						"/>
					</g>
					<g>
						<rect x="386.65" y="285.26" class="st19" width="86.85" height="16.44"/>
						<rect x="448.88" y="288.12" class="st17" width="19.64" height="10.72"/>
						<rect x="428.95" y="288.12" class="st17" width="14.63" height="10.72"/>
						<rect x="419.06" y="288.12" class="st17" width="6" height="10.72"/>
						<polygon class="st20" points="473.5,285.26 473.5,285.39 386.65,291.69 386.65,285.26 						"/>
					</g>
				</g>
			</g>
			<path class="st21" d="M462.49,317.47v16.45h11.01v16.44h-18.47c-2.91-5.14-9.09-11.66-7.35-21.13
				c2.1-11.49-0.88-18.27-2.22-30.39c-1.33-12.13,2.27-20.11,5.75-25.07l17.27,4.8v6.69h5.02v15.77h3.97v16.44H462.49z"/>
			<g>
				<path class="st15" d="M490.3,301.11c-3.93-7.37-8.34-13.88-12.81-19.16l-10.94-20.53l-13.3,7.09
					c-8.46,4.51-5.6,26.42,6.39,48.93s28.58,37.11,37.04,32.6l13.3-7.09l-10.94-20.53C497.17,315.78,494.23,308.48,490.3,301.11z"/>
				<g>
					<path class="st17" d="M494.5,315.02c1.03,2.69,1.93,5.36,2.67,7.95l0.05,0.2l8.65,16.23l-16.3,8.68
						c-5.72-2.2-13.38-8.95-20.73-19.39L494.5,315.02z"/>
					<path class="st17" d="M488.57,302.03c1.2,2.26,2.33,4.55,3.36,6.84l-26.75,14.25c-1.29-2.09-2.56-4.3-3.8-6.61
						c-0.93-1.75-1.8-3.49-2.61-5.19l26.93-14.35C486.7,298.62,487.65,300.31,488.57,302.03z"/>
					<path class="st17" d="M483.04,292.72l-26.31,14.01c-0.99-2.33-1.84-4.6-2.58-6.79l24.7-13.16
						C480.29,288.66,481.69,290.65,483.04,292.72z"/>
					<path class="st17" d="M473.99,279.55l1.85,3.47l-23.11,12.31c-0.37-1.34-0.7-2.66-0.99-3.93L473.99,279.55z"/>
				</g>
				<path class="st20" d="M503.6,294.02c12,22.52,14.86,44.42,6.4,48.93c-8.46,4.51-25.05-10.09-37.04-32.6
					c-12-22.52-14.86-44.42-6.4-48.93C475.02,256.91,491.61,271.51,503.6,294.02z"/>
				<path class="st19" d="M498.5,296.74c8,15.01,9.91,29.62,4.26,32.62c-0.88,0.47-1.9,0.63-3.01,0.51
					c-6.01-0.67-14.94-9.58-21.69-22.24c-6.75-12.66-9.16-25.04-6.36-30.41c0.52-1,1.22-1.75,2.1-2.22
					C479.44,272,490.5,281.73,498.5,296.74z"/>
				<g>
					<path class="st16" d="M488.01,300.47c0.73,0.25,1.48,0.73,2.25,1.44c0.77,0.71,1.52,1.74,2.23,3.08
						c0.57,1.08,0.95,2.16,1.12,3.26c0.17,1.1,0.11,2.12-0.19,3.06c-0.3,0.94-0.85,1.71-1.65,2.29l0.99,1.86l-1.58,0.84l-1.02-1.92
						c-1.56,0.49-3.22,0.39-5-0.31l-0.63-4.09c0.59,0.23,1.2,0.39,1.83,0.47c0.63,0.08,1.2,0.08,1.7,0l-3.2-6.01
						c-1.27-0.14-2.42-0.52-3.47-1.17c-1.05-0.64-2.01-1.78-2.88-3.4c-0.95-1.79-1.4-3.45-1.33-4.97c0.07-1.52,0.62-2.72,1.65-3.58
						l-1.07-2.01l1.58-0.84l1.09,2.04c0.78-0.28,1.54-0.39,2.27-0.33c0.73,0.07,1.51,0.25,2.36,0.53l0.77,3.94
						c-1.36-0.32-2.46-0.39-3.3-0.2l2.97,5.58l0.13,0.01C486.48,300.07,487.28,300.22,488.01,300.47z M481.15,298.03
						c0.42,0.79,1.13,1.34,2.13,1.64l-2.28-4.27C480.53,296.08,480.58,296.95,481.15,298.03z M490.13,308.27
						c0.03-0.52-0.13-1.11-0.48-1.76c-0.5-0.93-1.38-1.54-2.63-1.81l2.6,4.88C489.94,309.23,490.1,308.79,490.13,308.27z"/>
				</g>
				<path class="st15" d="M498.5,296.74c8,15.01,9.91,29.62,4.26,32.62c-0.88,0.47-1.9,0.63-3.01,0.51
					c2.8-5.37,0.39-17.74-6.36-30.41c-6.75-12.66-15.67-21.57-21.69-22.24c0.52-1,1.22-1.75,2.1-2.22
					C479.44,272,490.5,281.73,498.5,296.74z"/>
			</g>
		</g>
		<g>
			<g>
				<path class="st1" d="M371.33,348.67c0,2.82-28.46,5.11-63.56,5.11s-63.56-2.29-63.56-5.11c0-2.82,28.46-5.11,63.56-5.11
					S371.33,345.85,371.33,348.67z"/>
				<ellipse class="st1" cx="307.76" cy="348.67" rx="49.46" ry="2.88"/>
			</g>
			<g>
				<g>
					<g>
						<path class="st22" d="M341.09,312.37l-2.78,15.1l-4.23-0.12l-10.38-0.28c0,0,0.89-6.8,1.47-11.42
							c0.29-2.33,0.51-4.1,0.49-4.18L341.09,312.37z"/>
						<path class="st23" d="M341.09,312.37l-2.78,15.1l-4.23-0.12l0.38-8.67c0,0-5.74-0.81-9.29-3.03c0.29-2.33,0.51-4.1,0.49-4.18
							L341.09,312.37z"/>
					</g>
					<g>
						<path class="st8" d="M339.66,343.1c-0.28,3.24-0.49,5.56-0.49,5.56l-48.33-1.76l-4.93-0.18c0,0,0.25-2.4,0.98-5.03
							c0.64-2.31,1.65-4.79,3.21-5.98c2.6-2,10.47-2.9,15.52-3.65c1.03-0.15,1.95-0.3,2.67-0.45c0.27-0.06,0.52-0.12,0.74-0.17
							c0.39-0.11,0.85-0.27,1.36-0.5c0.71-0.32,1.51-0.74,2.36-1.22c0.62-0.35,1.27-0.73,1.91-1.13c0.71-0.44,1.43-0.89,2.13-1.35
							c3.06-1.99,5.71-3.92,5.71-3.92s4.86,0.08,9.57,0.18c4.28,0.1,8.44,0.2,8.74,0.28C341.24,323.91,340.28,335.81,339.66,343.1z"
							/>
						<path class="st24" d="M339.66,343.1c-0.28,3.24-0.49,5.56-0.49,5.56l-53.26-1.94c0,0,0.25-2.4,0.98-5.03
							C296.04,341.94,329.31,342.83,339.66,343.1z"/>
						<path class="st23" d="M339.66,343.1c-0.28,3.24-0.49,5.56-0.49,5.56l-48.33-1.76c1.19-8.2,9.82-11.54,20.47-10.19
							c9.39,1.19,18.28-6.28,20.76-13.21c4.28,0.1,8.44,0.2,8.74,0.28C341.24,323.91,340.28,335.81,339.66,343.1z"/>
						<path class="st25" d="M308.29,331.62c0.8,1.95,2.04,5.04,1.95,5.09c-0.13,0.08-2.27,0.93-2.43,0.66
							c-0.11-0.19-1.41-3.37-2.19-5.3C306.65,331.91,307.56,331.77,308.29,331.62z"/>
						<path class="st25" d="M312.75,329.73c0.77,1.87,2.25,5.52,2.15,5.58c-0.13,0.08-2.27,0.93-2.43,0.66
							c-0.1-0.18-1.29-3.08-2.08-5.02C311.1,330.63,311.9,330.21,312.75,329.73z"/>
						<path class="st25" d="M316.79,327.25c0.83,1.9,2.87,6.59,2.76,6.65c-0.13,0.08-2.27,0.92-2.42,0.66
							c-0.12-0.21-1.75-4.21-2.46-5.96C315.37,328.16,316.09,327.7,316.79,327.25z"/>
					</g>
					<g>
						<g>
							<path class="st7" d="M344.22,306.79l-2.1,9.43c0,0-3.17-0.13-9.95-0.66c-0.72-0.06-1.43-0.15-2.12-0.28
								c-5.83-1.05-10.46-4.29-10.46-4.29l1.49-9.3l7.65,1.68L344.22,306.79z"/>
							<path class="st23" d="M344.22,306.79l-2.1,9.43c0,0-3.17-0.13-9.95-0.66c-0.72-0.06-1.43-0.15-2.12-0.28
								c-0.2-3.82-0.59-8.76-1.32-11.9L344.22,306.79z"/>
						</g>
						<g>
							<path class="st11" d="M445.09,242.56c-5.8,8.54-38.43,12.98-54.32,12.34c-15.88-0.63-23.47-1.25-23.47-1.25
								s-6.44,28.98-10.81,40.81c-4.36,11.83-10.25,15.96-12.31,16.15c-2.06,0.19-20.77-0.59-24.59-6.57
								c-0.3-0.46-0.56-0.96-0.8-1.49c-0.54-1.19-0.92-2.52-1.18-3.91l0-0.01c-0.11-0.54-0.19-1.1-0.25-1.66
								c-0.63-5.39,0.36-11.23,1.33-13.58c1.32-3.2,6.13-37.24,9.94-49.69c0.71-2.58,2.32-11.89,9.16-15.54
								c6.83-3.65,28.44-5.07,28.44-5.07c11.91-1.27,29.38-1.74,40.65-3.03c16.77-1.92,41.71,5.3,41.71,5.3
								C448.6,222.98,450.9,234.01,445.09,242.56z"/>
							<path class="st9" d="M366.24,213.08c0,0-29.36,5.62-32.39,12.72c-3.03,7.11-10.31,49.55-12.74,56.76
								c-1.33,3.94-2.61,10.72-3.48,16.06c-0.11-0.54-0.19-1.1-0.25-1.66c-0.63-5.39,0.36-11.23,1.33-13.58
								c1.32-3.2,6.13-37.24,9.94-49.69c0.71-2.58,2.32-11.89,9.16-15.54C344.64,214.5,366.24,213.08,366.24,213.08z"/>
							<path class="st23" d="M445.09,242.56c-5.8,8.54-38.43,12.98-54.32,12.34c-15.88-0.63-23.47-1.25-23.47-1.25
								s-6.44,28.98-10.81,40.81c-4.36,11.83-10.25,15.96-12.31,16.15c-2.06,0.19-20.77-0.59-24.59-6.57
								c-0.3-0.46-0.56-0.96-0.8-1.49c25.98,2.02,28.05-13.02,32.4-30.86c2.74-11.23,2.51-19.43,3.14-24.73
								c1.17-10.42,7.69-9.56,10.13-9.51c6.17,0.12,54.47,1.66,53.69,0.8c-0.78-0.86-28.39-8.1-26.45-9.64
								c1.93-1.55,10.3-3.99,10.3-3.99s-33.04-6.13-35.76-11.53c11.91-1.27,29.38-1.74,40.65-3.03c16.77-1.92,41.71,5.3,41.71,5.3
								C448.6,222.98,450.9,234.01,445.09,242.56z"/>
						</g>
					</g>
				</g>
				<g>
					<g>
						<path class="st26" d="M311.3,163.24l22.41,52.06c0.25,0.58,0.3,1.2,0.18,1.76c-0.19,0.91-0.8,1.72-1.72,2.11
							c-1.5,0.64-3.23-0.05-3.87-1.55l-22.41-52.06c-0.64-1.49,0.04-3.23,1.54-3.87c0.18-0.08,0.37-0.13,0.55-0.17
							c0.58-0.13,1.18-0.07,1.7,0.14C310.38,161.95,310.98,162.5,311.3,163.24z"/>
						<path class="st1" d="M333.89,217.06c-0.19,0.91-0.8,1.72-1.72,2.11c-1.5,0.64-3.23-0.05-3.87-1.55l-22.41-52.06
							c-0.64-1.49,0.04-3.23,1.54-3.87c0.18-0.08,0.37-0.13,0.55-0.17c2.54,8.28,10.28,24.39,15.06,36.45
							C328.51,211.78,328.95,216.41,333.89,217.06z"/>
					</g>
					<g>
						<path class="st26" d="M333.24,215.45l56.11-8.01c0.62-0.09,1.23,0.03,1.75,0.29c0.83,0.42,1.45,1.22,1.59,2.21
							c0.23,1.61-0.89,3.1-2.51,3.33l-56.11,8.01c-1.61,0.23-3.1-0.89-3.33-2.5c-0.03-0.2-0.03-0.39-0.02-0.58
							c0.02-0.59,0.24-1.15,0.58-1.61C331.76,216,332.44,215.56,333.24,215.45z"/>
						<path class="st1" d="M391.1,207.73c0.83,0.42,1.45,1.22,1.59,2.21c0.23,1.61-0.89,3.1-2.51,3.33l-56.11,8.01
							c-1.61,0.23-3.1-0.89-3.33-2.5c-0.03-0.2-0.03-0.39-0.02-0.58c8.65-0.29,26.23-3.54,39.12-5
							C384.6,211.54,389.19,212.33,391.1,207.73z"/>
					</g>
				</g>
				<g>
					<g>
						<path class="st27" d="M320.44,317.23l-10.02,11.64l-3.59-2.23l-8.82-5.48c0,0,4.19-5.42,7.02-9.12
							c1.42-1.86,2.5-3.29,2.53-3.36L320.44,317.23z"/>
						<path class="st1" d="M320.44,317.23l-10.02,11.64l-3.59-2.23l4.69-7.3c0,0-4.55-3.59-6.49-7.3c1.42-1.86,2.5-3.29,2.53-3.36
							L320.44,317.23z"/>
					</g>
					<g>
						<path class="st28" d="M303.71,343.05c-1.87,2.65-3.23,4.56-3.23,4.56l-40.86-25.88l-4.16-2.64c0,0,1.42-1.95,3.39-3.85
							c1.71-1.67,3.84-3.31,5.78-3.55c3.26-0.42,10.5,2.78,15.24,4.67c0.97,0.39,1.83,0.72,2.53,0.96c0.27,0.09,0.51,0.16,0.72,0.22
							c0.39,0.1,0.87,0.19,1.43,0.25c0.77,0.08,1.68,0.12,2.65,0.14c0.71,0.01,1.46,0.01,2.22-0.01c0.84-0.02,1.68-0.05,2.52-0.09
							c3.64-0.18,6.91-0.51,6.91-0.51s4.16,2.52,8.17,4.98c3.64,2.24,7.18,4.43,7.41,4.65
							C314.75,327.27,307.93,337.06,303.71,343.05z"/>
						<path class="st13" d="M303.71,343.05c-1.87,2.65-3.23,4.56-3.23,4.56l-45.02-28.52c0,0,1.42-1.95,3.39-3.85
							C266.63,320.06,294.91,337.59,303.71,343.05z"/>
						<path class="st1" d="M303.71,343.05c-1.87,2.65-3.23,4.56-3.23,4.56l-40.86-25.88c5.16-6.48,14.29-5.01,22.82,1.52
							c7.51,5.76,18.96,3.79,24.59-0.95c3.64,2.24,7.18,4.43,7.41,4.65C314.75,327.27,307.93,337.06,303.71,343.05z"/>
						<path class="st15" d="M282.41,317.32c-0.3,2.08-0.78,5.38-0.88,5.38c-0.15,0-2.43-0.35-2.43-0.65c0-0.22,0.48-3.62,0.78-5.69
							C280.85,316.75,281.71,317.08,282.41,317.32z"/>
						<path class="st15" d="M287.22,317.93c-0.28,2-0.84,5.9-0.96,5.9c-0.15,0-2.43-0.35-2.43-0.65c0-0.2,0.44-3.31,0.73-5.38
							C285.33,317.88,286.24,317.92,287.22,317.93z"/>
						<path class="st15" d="M291.95,317.83c-0.24,2.06-0.84,7.14-0.97,7.14c-0.15,0-2.42-0.35-2.42-0.65c0-0.24,0.61-4.52,0.88-6.39
							C290.27,317.9,291.12,317.87,291.95,317.83z"/>
					</g>
					<g>
						<g>
							<path class="st5" d="M328.8,314.1l-5.55,7.91c0,0-2.88-1.34-8.94-4.42c-0.64-0.33-1.26-0.68-1.85-1.07
								c-4.98-3.21-8.02-7.97-8.02-7.97l4.93-8.02l6.42,4.48L328.8,314.1z"/>
							<path class="st1" d="M328.8,314.1l-5.55,7.91c0,0-2.88-1.34-8.94-4.42c-0.64-0.33-1.26-0.68-1.85-1.07
								c1.28-3.61,2.81-8.31,3.34-11.5L328.8,314.1z"/>
						</g>
						<g>
							<path class="st9" d="M455.32,245.96c-5.35,8.83-37.69,15-53.59,15.21c-15.89,0.21-23.5,0-23.5,0s-24.8,37-33.38,46.25
								c-8.56,9.25-15.58,10.82-17.55,10.21c-1.97-0.62-18.97-8.51-20.2-15.49c-0.09-0.54-0.15-1.1-0.16-1.68
								c-0.06-1.82,0.26-3.78,0.81-5.71c1.49-5.21,4.64-10.24,6.44-12.04c2.67-2.67,32.46-52.78,37.78-56.68
								c0.88-0.65,2.41-1.22,4.46-1.76c2.05-0.54,15.67-3.1,18.57-3.55c0.91-0.15,1.86-0.29,2.82-0.44
								c8.12-1.17,18.19-2.18,27.04-3.26c3.83-0.47,7.45-0.96,10.57-1.49c6.25-1.05,13.71-0.89,20.6-0.25
								c11.46,1.04,21.33,3.33,21.33,3.33c0.08,1.47,0.25,3.06,0.43,4.75C458.59,230.36,459.63,238.82,455.32,245.96z"/>
							<path class="st13" d="M356.44,224.27c-12.25,12.75-39.24,57.75-48.68,70.47c1.49-5.22,4.64-10.24,6.44-12.04
								c2.67-2.67,32.46-52.78,37.78-56.68C352.86,225.38,354.4,224.8,356.44,224.27z"/>
							<path class="st1" d="M456.81,242.94c-0.4,1.03-0.89,2.04-1.49,3.02c-5.35,8.83-37.69,15-53.59,15.21
								c-15.89,0.21-23.5,0-23.5,0s-24.8,37-33.38,46.25c-8.56,9.25-15.58,10.82-17.55,10.21c-1.97-0.62-18.97-8.51-20.2-15.49
								c-0.09-0.54-0.15-1.1-0.16-1.68c23.23,11.81,38.64-13.99,49.49-28.79c11.31-15.42,11.92-26.31,18.09-26.52
								c6.17-0.21,54.48-1.23,53.65-2.05c-0.82-0.82-28.78-6.58-26.93-8.22c1.86-1.65,10.07-4.52,10.07-4.52s-33.32-4.38-36.31-9.62
								c7.83-1.26,18.13-2.3,27.43-3.4c4.74-0.57,9.23-1.14,13-1.78c16.64-2.81,41.93,3.08,41.93,3.08
								C457.74,225.38,460.06,234.74,456.81,242.94z"/>
							<path class="st1" d="M456.81,242.94c-12.84-7.11-38.23-15.39-54.36-25.62c4.74-0.57,9.23-1.14,13-1.78
								c16.64-2.81,41.93,3.08,41.93,3.08C457.74,225.38,460.06,234.74,456.81,242.94z"/>
						</g>
					</g>
				</g>
				<g>
					<g>
						<path class="st28" d="M427.98,159.83c-4.11,14.8-18.61,50.16-30.53,49.13c-11.92-1.03-26.83-9.25-31.14-16.76
							c-2.23-3.88-1.61-8.33,0.21-11.94c1.21-2.42,2.97-4.46,4.76-5.69c0.71-0.49,1.43-0.86,2.12-1.07
							c5.04-1.54,18.35,9.76,18.35,9.76s8.91-26.85,13.72-36.48c0.59-1.17,1.11-2.09,1.55-2.68c4.95-6.58,13.71-4.45,18.4,1.78
							C428.13,149.46,429.49,154.41,427.98,159.83z"/>
						<path class="st23" d="M427.98,159.83c-4.11,14.8-18.61,50.16-30.53,49.13c-11.92-1.03-26.83-9.25-31.14-16.76
							c-2.23-3.88-1.61-8.33,0.21-11.94c5.02-1.52,11.21-1.26,12.81,4.16c2.55,8.55,9.64,10.02,12.26,10.1
							c2.62,0.08-0.62-5.09,0.62-6.09c1.23-1.01,4.93,3.62,6.78,4.77c1.85,1.16-4.01-5.73,2.98-17.14
							c6.99-11.41,9.87-31.55,9.87-31.55s6.35-0.83,13.57,1.36C428.13,149.46,429.49,154.41,427.98,159.83z"/>
						<path class="st13" d="M405.55,150.03c-3.08,7.17-13.33,36.31-13.33,36.31s-6.73-4.88-12.13-9.25
							c-2.81-2.27-6.19-2.66-8.8-2.52c0.71-0.49,1.43-0.86,2.12-1.07c5.04-1.54,18.35,9.76,18.35,9.76s8.91-26.85,13.72-36.48
							C406.05,147.6,406.13,148.69,405.55,150.03z"/>
					</g>
					<g>
						<path class="st28" d="M373.69,181.66c-0.98,1.9-2.3,3.25-3.5,4.2c-1.63,1.29-3.04,1.79-3.04,1.79l-5.48-4.08
							c-0.07-3.04,0.89-5.47,2.15-7.35c1.41-2.11,3.21-3.52,4.4-4.29c0.76-0.5,1.26-0.74,1.26-0.74l5.65,3.34
							C375.28,177.48,374.66,179.82,373.69,181.66z"/>
						<path class="st23" d="M373.69,181.66c-0.98,1.9-2.3,3.25-3.5,4.2c-1.63,1.29-3.04,1.79-3.04,1.79l-5.48-4.08
							c-0.07-3.04,0.89-5.47,2.15-7.35C366.5,178.54,370.43,180.38,373.69,181.66z"/>
						<path class="st13" d="M370.2,185.86c4.62-5.22,3.62-10.11,3.62-10.11s-3.24-2.36-5.58-3.83c0.76-0.5,1.26-0.74,1.26-0.74
							l5.65,3.34C375.42,180.5,372.57,184.01,370.2,185.86z"/>
					</g>
					<path class="st22" d="M352.95,178.79c1.7,2.16,7.76,3.34,10.33,2.78c2.57-0.57,5.09-4.58,4.37-7.97
						c-0.72-3.39-8.99-7.65-8.99-7.65l-7.81,7.19L352.95,178.79z"/>
					<g>
						<g>
							<g>
								<path class="st11" d="M346.93,153.18l17.29,23.8c0.57,0.79,0.4,1.89-0.39,2.46l-11.57,8.4c-0.79,0.57-1.89,0.4-2.46-0.39
									l-17.29-23.8c-0.57-0.79-0.4-1.89,0.39-2.46l11.57-8.4C345.26,152.22,346.36,152.4,346.93,153.18z"/>
								<path class="st13" d="M346.25,154.35l16.64,22.92c0.34,0.46,0.23,1.11-0.23,1.44l-10.74,7.8c-0.46,0.33-1.11,0.23-1.44-0.23
									l-16.64-22.92c-0.34-0.46-0.23-1.11,0.23-1.44l3.03-2.2l0.12,0.16c0.16,0.22,0.48,0.27,0.7,0.11l3.86-2.8
									c0.22-0.16,0.27-0.48,0.11-0.7l-0.12-0.16l3.03-2.2C345.27,153.79,345.92,153.89,346.25,154.35z"/>
							</g>
							<g class="st29">
								<path class="st10" d="M345.13,154.56l-2.64,1.92c0.12,0.41-0.02,0.88-0.38,1.14l-3.86,2.8c-0.37,0.27-0.85,0.26-1.21,0.01
									l-0.01,0.01l-0.83,5.24l8.11,11.17l3.16-19.92l-1.64-2.26C345.66,154.45,345.35,154.4,345.13,154.56z"/>
								<polygon class="st10" points="346.48,179.85 348.82,183.08 351.98,163.16 349.64,159.93 								"/>
								<path class="st10" d="M350.1,184.84l0.82,1.13c0.16,0.22,0.47,0.27,0.69,0.11l9.24-6.71l0.52-3.28l-8.11-11.17L350.1,184.84
									z"/>
							</g>
						</g>
					</g>
					<g>
						<path class="st22" d="M365.08,176.01c0,0-1.97,0.34-4.55-1.49c-2.58-1.83-1.23-6.53-1.23-6.53s-4.77,3.24-6.4,2.2
							c-1.06-0.68-1.23-1.43-0.89-2.13c0.18-0.37,0.49-0.73,0.89-1.07c1.15-0.96,5.16-4.63,7.4-4.39s6.75,5.09,7.79,8.05
							c0.2,0.57,0.32,1.11,0.36,1.61C368.65,174.33,367.51,175.67,365.08,176.01z"/>
						<path class="st13" d="M368.45,172.26c-1.86-3.79-6.75-8.59-8.26-8.63c-1.29-0.04-5.86,2.84-8.18,4.43
							c0.18-0.37,0.49-0.73,0.89-1.07c1.15-0.96,5.16-4.63,7.4-4.39s6.75,5.09,7.79,8.05C368.29,171.23,368.41,171.76,368.45,172.26
							z"/>
					</g>
				</g>
				<g>
					<g>
						<path class="st27" d="M433.46,128.3l-1.62,0.46l-17.66,4.93l-7.12-10.66c0,0-5.44,0.86-8.97,0.46h-0.01
							c-1.12-0.12-2.04-0.38-2.53-0.82c-2.11-1.85-2.93-9.3-2.93-9.3c-1.31-0.52-2.75-1.25-3.51-1.98c-0.52-0.51-0.72-1.02-0.3-1.47
							c1.03-1.08,3.34-3.95,3.34-3.95s-0.46-2-0.46-7.15c0-1.98-0.27-4.29-0.03-6.75c0.01-0.09,0.02-0.18,0.02-0.27
							c0.41-3.86,2.12-8.1,7.99-12.08c9.1-6.17,25.98,2.08,26.91,12.33c0.06,0.69,0.11,1.39,0.14,2.09
							c0.49,9.77-1.41,20.6-0.84,21.96C426.51,117.58,433.46,128.3,433.46,128.3z"/>
						<path class="st30" d="M393.5,106.59l-4.38,4.8c-0.52-0.51-0.72-1.02-0.3-1.47c1.03-1.08,3.34-3.95,3.34-3.95
							s-0.46-2-0.46-7.15c0-1.98-0.27-4.29-0.03-6.75c0.01-0.09,0.02-0.18,0.02-0.27C392.12,95.44,393.5,106.59,393.5,106.59z"/>
						<path class="st1" d="M431.84,128.76l-17.66,4.93l-4.12-6.17l-3-4.5c0,0-3.5,0.55-6.71,0.57c-0.79,0.01-1.56-0.02-2.26-0.1
							c3.76-2.21,7.47-5.25,7.84-8.84c0.77-7.48,0-19.59,0-19.59c-8.55,0.99-9.71-2.61-9.71-2.61s-2.48,1.18-4.55-0.38
							c0.36-3.93,2-8.27,8.02-12.35c9.1-6.17,25.98,2.08,26.91,12.33c0.06,0.69,0.11,1.39,0.14,2.09c-0.82,0.05-1.3,0.07-1.3,0.07
							s-2.01,21.44-1.09,22.98C425.28,118.74,431.84,128.76,431.84,128.76z"/>
						<path class="st1" d="M414.77,118.71c-0.73,2.49-2.86,6.02-4.71,8.81l-3-4.5c0,0-3.5,0.55-6.71,0.57
							c5.01-1.5,10.96-5.54,12.72-7.66c2.57-3.08,2.73-6.11,2.73-6.11S416.16,113.99,414.77,118.71z"/>
					</g>
					<g>
						<path class="st26" d="M437.88,88.58c-0.16,0.87-0.42,1.68-0.73,2.43c-1.45,3.51-4.08,5.68-4.08,5.68
							c1.85,5.94-1.54,8.1-1.54,8.1c1.15,5.78-5.58,7.49-5.58,7.49l-10.06-7.88l-5.48,0.62l0.07-8.4c-3.16-1-5.62-5.17-5.62-5.17
							c-6.48,2.16-10.1-2-10.1-2c-3.47,1-10.87,0.54-10.94-5.17c-0.03-2.36,0.81-3.88,1.81-4.84c1.41-1.37,3.13-1.63,3.13-1.63
							s-0.08-0.25-0.12-0.65c-0.14-1.38,0.15-4.61,5.2-6.51c7.74-2.92,13.34,3.16,13.34,3.16s2.86-4.55,10.26-4.55
							c7.4,0,8.71,6.86,8.71,6.86s7.78-2.24,11.1,6.09C438.16,84.52,438.24,86.68,437.88,88.58z"/>
						<path class="st30" d="M437.88,88.58c-2.05-13.86-12.88-9.8-12.88-9.8s-0.57-7.14-7.61-7.4c-7.04-0.25-10.22,5.55-10.22,5.55
							s-3.24-5.4-10.28-5.09c-5.74,0.25-7.71,3.95-8.26,5.31c-0.14-1.38,0.15-4.61,5.2-6.51c7.74-2.92,13.34,3.16,13.34,3.16
							s2.86-4.55,10.26-4.55c7.4,0,8.71,6.86,8.71,6.86s7.78-2.24,11.1,6.09C438.16,84.52,438.24,86.68,437.88,88.58z"/>
						<path class="st4" d="M433.07,96.69c1.85,5.94-1.54,8.1-1.54,8.1c1.15,5.78-5.58,7.49-5.58,7.49l-10.06-7.88l-5.48,0.62
							l0.07-8.4c-3.16-1-5.62-5.17-5.62-5.17c-6.48,2.16-10.1-2-10.1-2c-3.47,1-10.87,0.54-10.94-5.17
							c-0.03-2.36,0.81-3.88,1.81-4.84c0.98,6.43,11.45,4.53,11.45,4.53s0.15,2.45,2.47,3.07c2.31,0.63,5.78-2.05,5.78-2.05
							s3.47,7.07,11.41,6.85c7.94-0.23,9.79-3.7,9.79-3.7s5.09,3.76,10.64,2.87C435.7,94.52,433.07,96.69,433.07,96.69z"/>
					</g>
					<g>
						<path class="st11" d="M390.02,106.47l-0.69,0.02c-0.32,0.01-0.59-0.24-0.6-0.56l-0.34-10.1c-0.01-0.32,0.24-0.59,0.56-0.6
							l0.69-0.02c0.32-0.01,0.59,0.24,0.6,0.56l0.34,10.1C390.59,106.19,390.34,106.46,390.02,106.47z"/>
						
							<rect x="403.31" y="86.08" transform="matrix(0.0335 0.9994 -0.9994 0.0335 490.2274 -306.9871)" class="st4" width="1.05" height="27.79"/>
					</g>
					<g>
						<path class="st27" d="M420.01,107.47c-1.4,0.75-3.04,0.96-4.75,0.25l-0.39-7.71c0,0,0.18-0.4,0.55-0.94
							c1.01-1.48,3.37-3.98,6.93-1.95C425.93,99.16,423.91,105.4,420.01,107.47z"/>
						<path class="st4" d="M416.78,105.92c0,0-0.77-5.04,3.62-6.12C420.4,99.8,417.7,101.73,416.78,105.92z"/>
						<path class="st30" d="M420.01,107.47c2.92-3.21,4.42-8.3,0.99-9.35c-2.45-0.75-4.38,0.09-5.58,0.94
							c1.01-1.48,3.37-3.98,6.93-1.95C425.93,99.16,423.91,105.4,420.01,107.47z"/>
					</g>
				</g>
				<g>
					<path class="st28" d="M469.06,205.46c-0.23,3.1-1.22,6.43-1.77,8.48c-0.3,1.13-0.65,2.61-1.59,4.11
						c-1.22,1.95-3.44,3.94-7.89,5.31c-0.9,0.28-1.9,0.53-3,0.76c-5.97,1.22-17.62,1.45-27.22,1.22c-7.5-0.19-13.74-0.67-15.02-1.22
						c-2.42-1.02-5.99-3.61-7.68-7.09c-0.36-0.73-0.63-1.5-0.8-2.31c-0.92-4.62,3.09-10.79,1.86-18.5
						c-0.71-4.47-2.08-13.37-3.1-22.17c-0.11-1-0.23-2-0.34-2.98c-0.17-1.61-0.34-3.19-0.48-4.72c-0.32-3.55-0.53-6.83-0.56-9.5
						c-0.07-7.82,2.87-16.13,7.82-22.1c1.89-2.27,4.06-4.2,6.46-5.65c0,0,9.47-3.92,18.6-1.61c2.43,0.62,4.84,1.67,7.04,3.36
						c4.31,3.29,9.56,15.25,14.3,28.42c0,0,0.01,0.02,0.02,0.06c6.81,18.88,12.58,40.26,13.12,42.44
						C469.12,202.87,469.16,204.14,469.06,205.46z"/>
					<path class="st1" d="M469.06,205.46c-0.23,3.09-1.23,6.43-1.76,8.48c-0.77,2.93-1.85,8.02-12.49,10.18
						c-10.64,2.16-39.31,1.23-42.24,0c-2.93-1.23-7.55-4.78-8.48-9.4c-0.92-4.63,3.08-10.79,1.85-18.5
						c-0.8-4.98-2.39-15.45-3.44-25.15c14.56,19.6,53.79,24.99,54.93,24.99c1.39,0-8.02,6.17-10.64,8.94
						C444.66,207.25,458.02,207.58,469.06,205.46z"/>
					<path class="st1" d="M440.93,157.21c0,0-1.31,43.47-4.04,55.09c-0.24,1.03-0.52,2.02-0.85,2.98
						c-1.45,4.24-3.88,7.82-8.46,10.05c-6.17,3.01-16.22,3.58-32.98,0.08c-6.81-1.42-12.32-3.19-16.77-5.13
						c8.12-1.17,18.19-2.18,27.04-3.26c-0.36-0.73-0.63-1.5-0.8-2.31c-0.92-4.62,3.09-10.79,1.86-18.5
						c-0.71-4.47-2.08-13.37-3.1-22.17c15.43-8.6,34.06-21.59,34.06-21.59L440.93,157.21z"/>
					<path class="st30" d="M434.35,127.49c-7.6-0.92-15.19,0.34-18.86,3.2c-7.71,6.01-11.25,16.19-12.64,23.13
						c-0.62,3.11-0.81,8.01-0.83,12.53c-0.32-3.55-0.53-6.83-0.56-9.5c-0.07-7.82,2.87-16.13,7.83-22.1
						c1.89-2.27,4.06-4.21,6.46-5.65C415.75,129.1,425.21,125.18,434.35,127.49z"/>
					<path class="st13" d="M469.06,205.46c-0.23,3.09-1.23,6.43-1.76,8.48c-0.3,1.13-0.65,2.61-1.59,4.1
						c1.09-5.29,1.86-10.52,1.44-13.51c-1.05-7.53-10.96-43.53-11.42-45.21c6.8,18.88,12.57,40.26,13.12,42.43
						C469.11,202.87,469.16,204.14,469.06,205.46z"/>
					<path class="st1" d="M455.7,159.26c-4.48,0.65-9.15-1.75-12.92-9.15c-9.9-19.44-28.79-14.31-33.49-15.37
						c1.89-2.27,4.06-4.21,6.46-5.65c0,0,15.16-6.27,25.64,1.75C445.7,134.13,450.95,146.09,455.7,159.26z"/>
				</g>
				<g>
					<path class="st28" d="M459.4,142.94L459.4,142.94c-0.06,0.15-0.13,0.29-0.19,0.43c-1.68,3.59-4.41,6.34-7.17,6.28
						c-5.24-0.1-13.68-11.61-24.67-13.77s-19.32,0.47-19.32,0.47c0.09-0.33,0.18-0.65,0.28-0.96c0.33-1.04,0.74-2.01,1.22-2.92
						c6.23-11.89,23.92-13.01,31.39-12.63c8.22,0.41,17.58,6.57,19.53,13.26C461.34,136.13,460.78,139.81,459.4,142.94z"/>
					<path class="st30" d="M459.21,143.37c2.47-13.87-8.8-21.34-25.37-21.05c-13.15,0.23-21.12,6.85-24.3,10.16
						c6.23-11.89,23.92-13.01,31.39-12.63c8.22,0.41,17.58,6.57,19.53,13.26C461.38,136.26,460.72,140.15,459.21,143.37z"/>
					<path class="st1" d="M459.4,142.95c-0.06,0.14-0.13,0.28-0.19,0.42c-1.68,3.59-4.41,6.34-7.17,6.28
						c-5.24-0.1-13.68-11.61-24.67-13.77s-19.32,0.47-19.32,0.47c0.09-0.33,0.18-0.65,0.28-0.96c6.55-1.39,22.41-8.88,34.26-0.24
						C451.01,141.31,456.1,143.22,459.4,142.95z"/>
				</g>
				<g>
					<g>
						<path class="st27" d="M358.49,202.07c-2.93,1.78-8.48-0.31-8.48-0.31s-2.89,1.08-3.55,1.04c-0.65-0.04-2.89-0.81-3.47-1.58
							c-0.58-0.76-0.35-1.89-0.35-1.89s-1.81-1.39-2.08-2.16c-0.27-0.77,0.27-1.54,0.27-1.54s-1.39-1.08-1.78-2.23
							c-0.38-1.16,0.35-2.36,0.35-2.36s-8.99,0.7-10.03,0c-0.86-0.57-0.96-1.54-0.52-2.08c0.09-0.11,0.2-0.2,0.33-0.27
							c0.77-0.38,17.81-5.7,19.54-5.51c1.3,0.14,7.61,4.21,10.68,6.23c0.1,0.07,0.2,0.14,0.3,0.2c0.01,0,0.02,0.01,0.03,0.01
							c0.84,0.55,1.36,0.91,1.36,0.91S361.42,200.29,358.49,202.07z"/>
						<path class="st1" d="M358.49,202.07c-2.93,1.78-8.48-0.31-8.48-0.31s-2.89,1.08-3.55,1.04c-0.65-0.04-2.89-0.81-3.47-1.58
							c-0.58-0.76-0.35-1.89-0.35-1.89s-1.81-1.39-2.08-2.16c-0.27-0.77,0.27-1.54,0.27-1.54s-1.39-1.08-1.78-2.23
							c-0.38-1.16,0.35-2.36,0.35-2.36s-8.99,0.7-10.03,0c-0.86-0.57-0.96-1.54-0.52-2.08c3.53,2.21,14.33,0.04,14.55,0.01
							c-0.07,0.14-1.22,2.37,1.45,4.27c0,0-0.56,2.23,1.02,3.62c0,0-0.04,1.85,1.77,2.24c1.71,0.36,8.07-3.4,11.76-9.68
							c1.02,0.67,1.69,1.12,1.69,1.12S361.42,200.29,358.49,202.07z"/>
						<path class="st13" d="M359.71,189.62c-3.47-1.78-10.29-5.17-11.29-4.87c-1.34,0.41-19.56,4.21-19.56,4.21
							c0.09-0.11,0.2-0.2,0.33-0.27c0.77-0.38,17.81-5.7,19.54-5.51c1.3,0.14,7.61,4.21,10.68,6.23
							C359.52,189.49,359.62,189.56,359.71,189.62z"/>
					</g>
					<g>
						<g>
							<path class="st28" d="M370.16,190.51l-3.38,9.75l-2.47,7.13l-8.56-3.62c0.11-4.38,1.1-7.73,2.29-10.22
								c1.99-4.17,4.56-5.9,4.56-5.9L370.16,190.51z"/>
							<path class="st1" d="M366.78,200.26l-2.47,7.13l-8.56-3.62c0.11-4.38,1.1-7.73,2.29-10.22
								C359.51,196.85,363.25,198.96,366.78,200.26z"/>
						</g>
						<g>
							<path class="st28" d="M438.36,193.13c-2.26,22.1-10.18,25.8-27.65,28.88c-17.47,3.08-46.46-8.12-48.1-12.95
								c-1.45-4.26,0.29-13.22,3.33-18.88c0.41-0.76,0.85-1.47,1.3-2.09c0.07-0.1,0.15-0.21,0.24-0.31
								c3.84-4.85,10.43-2.81,19.49,0.41c9.25,3.29,23.13,0.82,23.13,0c0-0.82-1.05-41.8,9.24-46.05
								c5.05-2.08,10.11-0.79,14.08,1.95c0.01,0.01,0.01,0.01,0.01,0.01c2.87,1.99,5.17,4.74,6.47,7.51
								c0.52,1.1,0.88,2.39,1.12,3.86C442.2,162.75,440.24,174.74,438.36,193.13z"/>
							<path class="st30" d="M433.42,144.09c-6.14-2.77-13.79-2.93-16.92,3.78c-4.4,9.41-4.79,41.4-4.79,41.4l2.86,0.7
								c0,0-3.47,1-9.4,2.08c-5.93,1.08-11.25,0.62-23.28-3.62c-6.99-2.47-11.66-1.75-14.41-0.65c3.84-4.85,10.43-2.81,19.49,0.41
								c9.25,3.29,23.13,0.82,23.13,0c0-0.82-1.05-41.8,9.24-46.05C424.39,140.06,429.45,141.36,433.42,144.09z"/>
							<path class="st1" d="M438.36,193.13c-2.26,22.1-10.18,25.8-27.65,28.88c-17.47,3.08-46.46-8.12-48.1-12.95
								c-1.45-4.26,0.29-13.22,3.33-18.88c2.2,13.33,17.61,15.91,22.11,16.05c4.93,0.15-2.31-4.63-4.32-8.33
								c-2-3.7,30.22,7.25,36.08,8.02c5.86,0.77-7.4-7.4-6.01-9.71c1.39-2.31,9.4,0.31,12.64-0.46c3.24-0.77,13.72-12.8,14.49-38.54
								c0.02-0.62,0.05-1.2,0.09-1.74C442.2,162.75,440.24,174.74,438.36,193.13z"/>
						</g>
					</g>
				</g>
			</g>
		</g>
		<g>
			<path class="st28" d="M371.4,82.89v41.94c0,3.49-2.82,6.31-6.31,6.31h-54.11c-3.5,0-6.32-2.82-6.32-6.31V82.89
				c0-3.49,2.82-6.32,6.32-6.32h54.11c1.97,0,3.72,0.9,4.89,2.32C370.85,79.97,371.4,81.37,371.4,82.89z"/>
			<path class="st28" d="M369.97,78.89c-57.63-0.52-59.43-0.34-62.39,4.33c-2.77,4.36-2.82,34.2-2.93,39.01V82.89
				c0-3.49,2.82-6.32,6.32-6.32h54.11C367.05,76.57,368.8,77.47,369.97,78.89z"/>
			<path class="st8" d="M369.55,83.28v41.16c0,2.68-2.18,4.86-4.85,4.86h-53.34c-2.68,0-4.86-2.18-4.86-4.86v-4.34
				c36.58-4.13,47.74-28.49,51.13-41.68h7.07C367.37,78.42,369.55,80.6,369.55,83.28z"/>
			<g class="st12">
				<path class="st13" d="M363.59,125.01c-0.26,0.09-0.54,0.13-0.83,0.13h-3.7c-0.17,0-0.31,0.14-0.31,0.31
					c0,0.17,0.14,0.31,0.31,0.31l3.7,0c0.36,0,0.7-0.06,1.02-0.16c0.16-0.05,0.25-0.23,0.2-0.39
					C363.93,125.04,363.75,124.95,363.59,125.01z M365.43,120.04v2.43c0,0.4-0.09,0.77-0.24,1.11c-0.07,0.15,0,0.34,0.15,0.41
					c0.15,0.07,0.34,0,0.41-0.15c0.19-0.42,0.3-0.88,0.3-1.36v-2.43c0-0.17-0.14-0.31-0.31-0.31
					C365.57,119.73,365.43,119.87,365.43,120.04L365.43,120.04z M365.43,113.87v3.7c0,0.17,0.14,0.31,0.31,0.31
					c0.17,0,0.31-0.14,0.31-0.31v-3.7c0-0.17-0.14-0.31-0.31-0.31C365.57,113.56,365.43,113.7,365.43,113.87z M365.43,107.71v3.7
					c0,0.17,0.14,0.31,0.31,0.31c0.17,0,0.31-0.14,0.31-0.31v-3.7c0-0.17-0.14-0.31-0.31-0.31
					C365.57,107.4,365.43,107.54,365.43,107.71z M365.43,101.54v3.7c0,0.17,0.14,0.31,0.31,0.31c0.17,0,0.31-0.14,0.31-0.31v-3.7
					c0-0.17-0.14-0.31-0.31-0.31C365.57,101.23,365.43,101.37,365.43,101.54z M365.43,95.37v3.7c0,0.17,0.14,0.31,0.31,0.31
					c0.17,0,0.31-0.14,0.31-0.31v-3.7c0-0.17-0.14-0.31-0.31-0.31C365.57,95.06,365.43,95.2,365.43,95.37z M365.43,89.21v3.7
					c0,0.17,0.14,0.31,0.31,0.31c0.17,0,0.31-0.14,0.31-0.31v-3.7c0-0.17-0.14-0.31-0.31-0.31
					C365.57,88.9,365.43,89.03,365.43,89.21z M364.73,83.45c0.44,0.48,0.71,1.11,0.71,1.81v1.48c0,0.17,0.14,0.31,0.31,0.31
					c0.17,0,0.31-0.14,0.31-0.31l0-1.48c0-0.86-0.33-1.64-0.87-2.23c-0.12-0.13-0.31-0.13-0.44-0.02
					C364.62,83.13,364.61,83.32,364.73,83.45L364.73,83.45z M359.06,82.59h3.7c0.17,0,0.31-0.14,0.31-0.31
					c0-0.17-0.14-0.31-0.31-0.31h-3.7c-0.17,0-0.31,0.14-0.31,0.31C358.75,82.45,358.89,82.59,359.06,82.59z M352.89,82.59h3.7
					c0.17,0,0.31-0.14,0.31-0.31c0-0.17-0.14-0.31-0.31-0.31h-3.7c-0.17,0-0.31,0.14-0.31,0.31
					C352.58,82.45,352.72,82.59,352.89,82.59z M346.73,82.59h3.7c0.17,0,0.31-0.14,0.31-0.31c0-0.17-0.14-0.31-0.31-0.31h-3.7
					c-0.17,0-0.31,0.14-0.31,0.31C346.42,82.45,346.56,82.59,346.73,82.59z M340.56,82.59h3.7c0.17,0,0.31-0.14,0.31-0.31
					c0-0.17-0.14-0.31-0.31-0.31h-3.7c-0.17,0-0.31,0.14-0.31,0.31C340.25,82.45,340.39,82.59,340.56,82.59z M334.39,82.59h3.7
					c0.17,0,0.31-0.14,0.31-0.31c0-0.17-0.14-0.31-0.31-0.31h-3.7c-0.17,0-0.31,0.14-0.31,0.31
					C334.08,82.45,334.22,82.59,334.39,82.59z M328.23,82.59h3.7c0.17,0,0.31-0.14,0.31-0.31c0-0.17-0.14-0.31-0.31-0.31h-3.7
					c-0.17,0-0.31,0.14-0.31,0.31C327.92,82.45,328.06,82.59,328.23,82.59z M322.06,82.59h3.7c0.17,0,0.31-0.14,0.31-0.31
					c0-0.17-0.14-0.31-0.31-0.31h-3.7c-0.17,0-0.31,0.14-0.31,0.31C321.75,82.45,321.89,82.59,322.06,82.59z M315.89,82.59h3.7
					c0.17,0,0.31-0.14,0.31-0.31c0-0.17-0.14-0.31-0.31-0.31h-3.7c-0.17,0-0.31,0.14-0.31,0.31
					C315.58,82.45,315.72,82.59,315.89,82.59z M310.8,84.27c0.39-0.99,1.36-1.68,2.48-1.68h0.15c0.17,0,0.31-0.14,0.31-0.31
					c0-0.17-0.14-0.31-0.31-0.31l-0.15,0c-1.39,0-2.57,0.86-3.06,2.07c-0.06,0.16,0.01,0.34,0.17,0.4
					C310.55,84.51,310.73,84.43,310.8,84.27L310.8,84.27z M310.61,90.3v-3.7c0-0.17-0.14-0.31-0.31-0.31
					c-0.17,0-0.31,0.14-0.31,0.31v3.7c0,0.17,0.14,0.31,0.31,0.31C310.47,90.6,310.61,90.47,310.61,90.3z M310.61,96.46v-3.7
					c0-0.17-0.14-0.31-0.31-0.31c-0.17,0-0.31,0.14-0.31,0.31v3.7c0,0.17,0.14,0.31,0.31,0.31
					C310.47,96.77,310.61,96.63,310.61,96.46z M310.61,102.63v-3.7c0-0.17-0.14-0.31-0.31-0.31c-0.17,0-0.31,0.14-0.31,0.31v3.7
					c0,0.17,0.14,0.31,0.31,0.31C310.47,102.94,310.61,102.8,310.61,102.63z M310.61,108.8v-3.7c0-0.17-0.14-0.31-0.31-0.31
					c-0.17,0-0.31,0.14-0.31,0.31v3.7c0,0.17,0.14,0.31,0.31,0.31C310.47,109.1,310.61,108.97,310.61,108.8z M310.61,114.96v-3.7
					c0-0.17-0.14-0.31-0.31-0.31c-0.17,0-0.31,0.14-0.31,0.31v3.7c0,0.17,0.14,0.31,0.31,0.31
					C310.47,115.27,310.61,115.13,310.61,114.96z M310.61,121.13v-3.7c0-0.17-0.14-0.31-0.31-0.31c-0.17,0-0.31,0.14-0.31,0.31v3.7
					c0,0.17,0.14,0.31,0.31,0.31C310.47,121.44,310.61,121.3,310.61,121.13z M313.43,125.14h-0.15c-1.13,0-2.09-0.7-2.48-1.68
					c-0.06-0.16-0.24-0.24-0.4-0.17c-0.16,0.06-0.24,0.24-0.17,0.4c0.48,1.21,1.67,2.07,3.05,2.07h0.15c0.17,0,0.31-0.14,0.31-0.31
					C313.74,125.27,313.6,125.14,313.43,125.14L313.43,125.14z M319.6,125.14h-3.7c-0.17,0-0.31,0.14-0.31,0.31
					c0,0.17,0.14,0.31,0.31,0.31h3.7c0.17,0,0.31-0.14,0.31-0.31C319.9,125.27,319.77,125.14,319.6,125.14z M325.76,125.14h-3.7
					c-0.17,0-0.31,0.14-0.31,0.31c0,0.17,0.14,0.31,0.31,0.31h3.7c0.17,0,0.31-0.14,0.31-0.31
					C326.07,125.27,325.93,125.14,325.76,125.14z M331.93,125.14h-3.7c-0.17,0-0.31,0.14-0.31,0.31c0,0.17,0.14,0.31,0.31,0.31h3.7
					c0.17,0,0.31-0.14,0.31-0.31C332.24,125.27,332.1,125.14,331.93,125.14z M338.1,125.14h-3.7c-0.17,0-0.31,0.14-0.31,0.31
					c0,0.17,0.14,0.31,0.31,0.31h3.7c0.17,0,0.31-0.14,0.31-0.31C338.4,125.27,338.27,125.14,338.1,125.14z M344.26,125.14h-3.7
					c-0.17,0-0.31,0.14-0.31,0.31c0,0.17,0.14,0.31,0.31,0.31h3.7c0.17,0,0.31-0.14,0.31-0.31
					C344.57,125.27,344.43,125.14,344.26,125.14z M350.43,125.14h-3.7c-0.17,0-0.31,0.14-0.31,0.31c0,0.17,0.14,0.31,0.31,0.31h3.7
					c0.17,0,0.31-0.14,0.31-0.31C350.74,125.27,350.6,125.14,350.43,125.14z M356.6,125.14h-3.7c-0.17,0-0.31,0.14-0.31,0.31
					c0,0.17,0.14,0.31,0.31,0.31h3.7c0.17,0,0.31-0.14,0.31-0.31C356.91,125.27,356.77,125.14,356.6,125.14z"/>
			</g>
			<path class="st28" d="M369.45,113.82h-15.54c-2.44,0-4.41-1.98-4.41-4.41V98.32c0-2.44,1.98-4.41,4.41-4.41h15.54
				c2.44,0,4.41,1.98,4.41,4.41v11.09C373.87,111.84,371.89,113.82,369.45,113.82z"/>
			<circle class="st19" cx="357.37" cy="103.86" r="4.32"/>
		</g>
		<g>
			<g>
				<path class="st15" d="M190.44,112.67c-0.89,1.63-2.93,2.24-4.56,1.35c-1.63-0.89-2.24-2.93-1.35-4.56
					c0.89-1.63,2.93-2.24,4.56-1.35C190.72,109,191.32,111.04,190.44,112.67z"/>
				<path class="st13" d="M193.19,127.04c-0.74,1.37-2.46,1.88-3.83,1.14c-1.37-0.74-1.88-2.46-1.14-3.83
					c0.74-1.37,2.46-1.88,3.83-1.14C193.42,123.95,193.93,125.66,193.19,127.04z"/>
				<path class="st31" d="M209.51,123.71c-0.47,0.87-1.55,1.19-2.42,0.72c-0.87-0.47-1.19-1.55-0.72-2.42
					c0.47-0.87,1.55-1.19,2.42-0.72C209.66,121.76,209.98,122.84,209.51,123.71z"/>
			</g>
			<g>
				<path class="st15" d="M148.49,21.93c1.12-0.86,2.72-0.64,3.57,0.48c0.86,1.12,0.64,2.72-0.48,3.57s-2.72,0.64-3.57-0.48
					C147.16,24.39,147.37,22.79,148.49,21.93z"/>
				<path class="st5" d="M154.07,3.47c1.27-0.97,3.09-0.73,4.06,0.54c0.97,1.27,0.73,3.09-0.54,4.06c-1.27,0.97-3.09,0.73-4.06-0.54
					C152.56,6.26,152.8,4.44,154.07,3.47z"/>
				<path class="st15" d="M166.71,8.38c0.58-0.44,1.41-0.33,1.85,0.25c0.44,0.58,0.33,1.41-0.25,1.85
					c-0.58,0.44-1.41,0.33-1.85-0.25C166.02,9.65,166.13,8.82,166.71,8.38z"/>
			</g>
			<g>
				<path class="st31" d="M240.87,319.12c-1.77,2.23-5,2.6-7.23,0.83c-2.23-1.77-2.6-5-0.83-7.23c1.77-2.23,5-2.6,7.23-0.83
					C242.26,313.66,242.64,316.9,240.87,319.12z"/>
				<path class="st15" d="M216.18,323.1c-0.46,0.58-1.31,0.68-1.9,0.22c-0.58-0.46-0.68-1.31-0.22-1.9c0.46-0.58,1.31-0.68,1.9-0.22
					C216.54,321.67,216.64,322.51,216.18,323.1z"/>
				<path class="st15" d="M248.87,299.94c-0.8,1-2.25,1.17-3.26,0.37c-1-0.8-1.17-2.25-0.37-3.26c0.8-1,2.25-1.17,3.26-0.37
					C249.49,297.48,249.66,298.94,248.87,299.94z"/>
			</g>
			<g>
				<path class="st15" d="M282.84,124.83c-1.09,1.5-3.2,1.84-4.7,0.75c-1.5-1.09-1.84-3.2-0.75-4.7c1.09-1.5,3.2-1.84,4.7-0.75
					C283.6,121.22,283.93,123.32,282.84,124.83z"/>
				<path class="st3" d="M283.7,139.43c-0.92,1.26-2.69,1.54-3.95,0.63c-1.26-0.92-1.54-2.69-0.63-3.95
					c0.92-1.26,2.69-1.54,3.95-0.63C284.33,136.4,284.61,138.16,283.7,139.43z"/>
				<path class="st31" d="M300.31,138.26c-0.58,0.8-1.69,0.97-2.49,0.4c-0.8-0.58-0.97-1.69-0.4-2.49c0.58-0.8,1.69-0.97,2.49-0.4
					C300.71,136.34,300.89,137.46,300.31,138.26z"/>
			</g>
			<g>
				<path class="st15" d="M387.35,8.54c-1.23-1.4-1.09-3.52,0.3-4.75c1.4-1.23,3.52-1.09,4.75,0.3c1.23,1.4,1.09,3.52-0.3,4.75
					C390.7,10.07,388.58,9.94,387.35,8.54z"/>
				<path class="st3" d="M366.03,14.16c-1.03-1.17-0.92-2.96,0.26-3.99c1.17-1.03,2.96-0.92,3.99,0.26
					c1.03,1.17,0.92,2.96-0.26,3.99C368.85,15.44,367.06,15.33,366.03,14.16z"/>
				<path class="st31" d="M362.88,32.15c-0.65-0.74-0.58-1.87,0.16-2.52s1.87-0.58,2.52,0.16c0.65,0.74,0.58,1.87-0.16,2.52
					C364.66,32.96,363.53,32.89,362.88,32.15z"/>
			</g>
			<g>
				<path class="st15" d="M19.48,71.3c-1.77-0.58-2.72-2.49-2.14-4.25c0.58-1.77,2.49-2.72,4.25-2.14c1.77,0.58,2.72,2.49,2.14,4.25
					C23.15,70.92,21.24,71.88,19.48,71.3z"/>
				<circle class="st3" cx="6.72" cy="73.87" r="2.83"/>
				<path class="st31" d="M12.01,92.02c-0.94-0.31-1.44-1.32-1.14-2.25c0.31-0.94,1.32-1.44,2.25-1.14
					c0.94,0.31,1.44,1.32,1.14,2.25C13.95,91.82,12.94,92.33,12.01,92.02z"/>
			</g>
			<g>
				<path class="st15" d="M14.89,322.17c-0.35-1.36,0.48-2.75,1.84-3.1c1.36-0.35,2.75,0.48,3.1,1.84c0.35,1.36-0.48,2.75-1.84,3.1
					C16.62,324.36,15.24,323.54,14.89,322.17z"/>
				<path class="st5" d="M0.09,309.81c-0.4-1.55,0.54-3.12,2.09-3.52s3.12,0.54,3.52,2.09c0.4,1.55-0.54,3.12-2.09,3.52
					C2.06,312.29,0.49,311.35,0.09,309.81z"/>
				<path class="st15" d="M9.56,300.1c-0.18-0.71,0.25-1.43,0.95-1.61c0.71-0.18,1.43,0.25,1.61,0.95c0.18,0.71-0.25,1.43-0.95,1.61
					C10.46,301.24,9.74,300.81,9.56,300.1z"/>
			</g>
			<g>
				<path class="st31" d="M526.8,288.09c0.52,2.8-1.33,5.48-4.13,6c-2.8,0.52-5.48-1.33-6-4.13c-0.52-2.8,1.33-5.48,4.13-6
					C523.6,283.45,526.28,285.3,526.8,288.09z"/>
				<circle class="st15" cx="519.23" cy="315.32" r="1.35"/>
				<path class="st15" d="M510.9,280.31c0.23,1.26-0.6,2.47-1.86,2.7c-1.26,0.23-2.47-0.6-2.7-1.86c-0.23-1.26,0.6-2.47,1.86-2.7
					C509.46,278.22,510.66,279.05,510.9,280.31z"/>
			</g>
		</g>
	</g>
</g>
</svg>
