<?xml version="1.0" encoding="utf-8"?>
<!-- Generator: Adobe Illustrator 24.0.1, SVG Export Plug-In . SVG Version: 6.00 Build 0)  -->
<svg version="1.1" id="Layer_1" xmlns="http://www.w3.org/2000/svg" xmlns:xlink="http://www.w3.org/1999/xlink" x="0px" y="0px"
	 viewBox="0 0 732.5 220.75" style="enable-background:new 0 0 732.5 220.75;" xml:space="preserve">
<style type="text/css">
	.st0{fill:#282A75;}
</style>
<g>
	<path class="st0" d="M119.22,83.08H39.74L0,151.91l39.74,68.83h79.48l39.74-68.83L119.22,83.08z M104.2,194.72H54.77l-24.72-42.81
		l24.72-42.81h49.43l24.72,42.81L104.2,194.72z"/>
	<polygon class="st0" points="119.22,67.21 138.31,34.16 115.77,21.14 104.2,41.18 91.84,41.18 91.83,7.65 79.48,0 65.9,7.65 
		65.82,41.18 54.77,41.18 43.2,21.14 20.66,34.16 39.74,67.21 	"/>
</g>
<g>
	<g>
		<path class="st0" d="M243.28,193.89v-34.55h6.98v34.55H243.28z"/>
		<path class="st0" d="M292.89,193.89h-6.62v-12.77c0-2.7-0.14-4.45-0.42-5.24c-0.28-0.79-0.74-1.41-1.38-1.85
			c-0.64-0.44-1.4-0.66-2.3-0.66c-1.15,0-2.18,0.31-3.09,0.94c-0.91,0.63-1.54,1.46-1.87,2.5c-0.34,1.04-0.51,2.95-0.51,5.75v11.33
			h-6.62v-25.03h6.15v3.68c2.18-2.83,4.93-4.24,8.25-4.24c1.46,0,2.8,0.26,4.01,0.79c1.21,0.53,2.12,1.2,2.75,2.01
			c0.62,0.82,1.05,1.74,1.3,2.78c0.24,1.04,0.37,2.52,0.37,4.45V193.89z"/>
		<path class="st0" d="M324.35,168.87v5.28h-4.52v10.09c0,2.04,0.04,3.23,0.13,3.57c0.09,0.34,0.28,0.62,0.59,0.84
			c0.31,0.22,0.68,0.33,1.12,0.33c0.61,0,1.5-0.21,2.66-0.64l0.57,5.14c-1.54,0.66-3.28,0.99-5.23,0.99c-1.19,0-2.27-0.2-3.23-0.6
			c-0.96-0.4-1.66-0.92-2.11-1.56c-0.45-0.64-0.76-1.5-0.93-2.58c-0.14-0.77-0.21-2.32-0.21-4.67v-10.91h-3.04v-5.28h3.04v-4.97
			l6.65-3.86v8.84H324.35z"/>
		<path class="st0" d="M356.71,185.93l6.6,1.11c-0.85,2.42-2.19,4.26-4.02,5.53c-1.83,1.26-4.12,1.9-6.87,1.9
			c-4.35,0-7.57-1.42-9.66-4.27c-1.65-2.28-2.47-5.15-2.47-8.62c0-4.15,1.08-7.4,3.25-9.74c2.17-2.35,4.91-3.52,8.22-3.52
			c3.72,0,6.66,1.23,8.81,3.69c2.15,2.46,3.18,6.23,3.09,11.3h-16.59c0.05,1.96,0.58,3.49,1.6,4.58c1.02,1.09,2.29,1.64,3.82,1.64
			c1.04,0,1.91-0.28,2.62-0.85C355.81,188.1,356.35,187.19,356.71,185.93z M357.09,179.24c-0.05-1.92-0.54-3.37-1.48-4.37
			c-0.94-1-2.09-1.5-3.44-1.5c-1.45,0-2.64,0.53-3.58,1.58c-0.94,1.05-1.41,2.48-1.39,4.29H357.09z"/>
		<path class="st0" d="M388.67,193.89h-6.62v-25.03h6.15v3.56c1.05-1.68,2-2.79,2.84-3.32c0.84-0.53,1.79-0.8,2.86-0.8
			c1.51,0,2.96,0.42,4.36,1.25l-2.05,5.77c-1.12-0.72-2.15-1.08-3.11-1.08c-0.93,0-1.71,0.26-2.36,0.77
			c-0.64,0.51-1.15,1.43-1.52,2.77c-0.37,1.34-0.55,4.13-0.55,8.39V193.89z"/>
		<path class="st0" d="M437.15,193.89h-6.62v-12.77c0-2.7-0.14-4.45-0.42-5.24c-0.28-0.79-0.74-1.41-1.38-1.85
			c-0.64-0.44-1.4-0.66-2.3-0.66c-1.15,0-2.18,0.31-3.09,0.94c-0.91,0.63-1.54,1.46-1.87,2.5c-0.34,1.04-0.51,2.95-0.51,5.75v11.33
			h-6.62v-25.03h6.15v3.68c2.18-2.83,4.93-4.24,8.25-4.24c1.46,0,2.8,0.26,4.01,0.79c1.21,0.53,2.12,1.2,2.75,2.01
			c0.62,0.82,1.05,1.74,1.3,2.78c0.24,1.04,0.37,2.52,0.37,4.45V193.89z"/>
		<path class="st0" d="M462.08,176.5l-6.01-1.08c0.68-2.42,1.84-4.21,3.49-5.37c1.65-1.16,4.1-1.74,7.35-1.74
			c2.95,0,5.15,0.35,6.6,1.05c1.45,0.7,2.46,1.59,3.05,2.66c0.59,1.08,0.88,3.05,0.88,5.93l-0.07,7.73c0,2.2,0.11,3.82,0.32,4.87
			c0.21,1.04,0.61,2.16,1.19,3.36h-6.55c-0.17-0.44-0.39-1.09-0.64-1.96c-0.11-0.39-0.19-0.65-0.24-0.78
			c-1.13,1.1-2.34,1.92-3.63,2.47c-1.29,0.55-2.66,0.82-4.12,0.82c-2.58,0-4.61-0.7-6.09-2.1c-1.48-1.4-2.23-3.17-2.23-5.3
			c0-1.41,0.34-2.67,1.01-3.78c0.68-1.11,1.62-1.96,2.84-2.55c1.22-0.59,2.97-1.1,5.27-1.54c3.09-0.58,5.24-1.12,6.43-1.63v-0.66
			c0-1.27-0.31-2.18-0.94-2.72c-0.63-0.54-1.81-0.81-3.56-0.81c-1.18,0-2.1,0.23-2.76,0.7C463.03,174.53,462.49,175.34,462.08,176.5
			z M470.94,181.88c-0.85,0.28-2.19,0.62-4.03,1.01c-1.84,0.39-3.04,0.78-3.61,1.15c-0.86,0.61-1.3,1.39-1.3,2.33
			c0,0.93,0.35,1.73,1.04,2.4c0.69,0.68,1.57,1.01,2.64,1.01c1.19,0,2.33-0.39,3.42-1.18c0.8-0.6,1.33-1.33,1.58-2.19
			c0.17-0.57,0.26-1.64,0.26-3.23V181.88z"/>
		<path class="st0" d="M508.72,168.87v5.28h-4.52v10.09c0,2.04,0.04,3.23,0.13,3.57c0.09,0.34,0.28,0.62,0.59,0.84
			c0.31,0.22,0.68,0.33,1.12,0.33c0.61,0,1.5-0.21,2.66-0.64l0.57,5.14c-1.54,0.66-3.28,0.99-5.23,0.99c-1.19,0-2.27-0.2-3.23-0.6
			c-0.96-0.4-1.66-0.92-2.11-1.56c-0.45-0.64-0.76-1.5-0.93-2.58c-0.14-0.77-0.21-2.32-0.21-4.67v-10.91h-3.04v-5.28h3.04v-4.97
			l6.65-3.86v8.84H508.72z"/>
		<path class="st0" d="M526.59,165.47v-6.13h6.62v6.13H526.59z M526.59,193.89v-25.03h6.62v25.03H526.59z"/>
		<path class="st0" d="M551.74,181.03c0-2.2,0.54-4.33,1.63-6.39c1.08-2.06,2.62-3.63,4.61-4.71c1.99-1.08,4.21-1.63,6.66-1.63
			c3.79,0,6.89,1.23,9.31,3.69c2.42,2.46,3.63,5.57,3.63,9.32c0,3.79-1.22,6.92-3.66,9.41c-2.44,2.49-5.52,3.74-9.23,3.74
			c-2.29,0-4.48-0.52-6.56-1.56c-2.08-1.04-3.66-2.56-4.75-4.56C552.28,186.34,551.74,183.9,551.74,181.03z M558.52,181.38
			c0,2.48,0.59,4.38,1.77,5.7c1.18,1.32,2.63,1.98,4.36,1.98c1.73,0,3.18-0.66,4.35-1.98c1.17-1.32,1.76-3.24,1.76-5.75
			c0-2.45-0.59-4.34-1.76-5.66c-1.17-1.32-2.62-1.98-4.35-1.98c-1.73,0-3.18,0.66-4.36,1.98C559.11,177,558.52,178.9,558.52,181.38z
			"/>
		<path class="st0" d="M618.78,193.89h-6.62v-12.77c0-2.7-0.14-4.45-0.42-5.24c-0.28-0.79-0.74-1.41-1.38-1.85
			c-0.64-0.44-1.4-0.66-2.3-0.66c-1.15,0-2.18,0.31-3.09,0.94c-0.91,0.63-1.54,1.46-1.87,2.5c-0.34,1.04-0.51,2.95-0.51,5.75v11.33
			h-6.62v-25.03h6.15v3.68c2.18-2.83,4.93-4.24,8.25-4.24c1.46,0,2.8,0.26,4.01,0.79c1.21,0.53,2.12,1.2,2.75,2.01
			c0.62,0.82,1.05,1.74,1.3,2.78c0.24,1.04,0.37,2.52,0.37,4.45V193.89z"/>
		<path class="st0" d="M643.72,176.5l-6.01-1.08c0.68-2.42,1.84-4.21,3.49-5.37c1.65-1.16,4.1-1.74,7.35-1.74
			c2.95,0,5.15,0.35,6.6,1.05c1.45,0.7,2.46,1.59,3.05,2.66c0.59,1.08,0.88,3.05,0.88,5.93l-0.07,7.73c0,2.2,0.11,3.82,0.32,4.87
			c0.21,1.04,0.61,2.16,1.19,3.36h-6.55c-0.17-0.44-0.39-1.09-0.64-1.96c-0.11-0.39-0.19-0.65-0.24-0.78
			c-1.13,1.1-2.34,1.92-3.63,2.47c-1.29,0.55-2.66,0.82-4.12,0.82c-2.58,0-4.61-0.7-6.09-2.1c-1.48-1.4-2.23-3.17-2.23-5.3
			c0-1.41,0.34-2.67,1.01-3.78c0.68-1.11,1.62-1.96,2.84-2.55c1.22-0.59,2.97-1.1,5.27-1.54c3.09-0.58,5.24-1.12,6.43-1.63v-0.66
			c0-1.27-0.31-2.18-0.94-2.72c-0.63-0.54-1.81-0.81-3.56-0.81c-1.18,0-2.1,0.23-2.76,0.7C644.66,174.53,644.13,175.34,643.72,176.5
			z M652.58,181.88c-0.85,0.28-2.19,0.62-4.03,1.01c-1.84,0.39-3.04,0.78-3.61,1.15c-0.86,0.61-1.3,1.39-1.3,2.33
			c0,0.93,0.35,1.73,1.04,2.4c0.69,0.68,1.57,1.01,2.64,1.01c1.19,0,2.33-0.39,3.42-1.18c0.8-0.6,1.33-1.33,1.58-2.19
			c0.17-0.57,0.26-1.64,0.26-3.23V181.88z"/>
		<path class="st0" d="M678.88,193.89v-34.55h6.62v34.55H678.88z"/>
	</g>
	<g>
		<path class="st0" d="M313.65,83.76c0,4.43-0.91,8.24-2.74,11.44c-1.83,3.19-4.35,5.79-7.56,7.78c-3.32,2.07-7.12,3.56-11.38,4.49
			c-4.26,0.92-9.05,1.38-14.37,1.38h-6.42v22.1c0,1.33,0.25,2.48,0.75,3.46c0.5,0.98,1.45,1.76,2.85,2.35
			c0.74,0.3,1.94,0.61,3.6,0.94c1.66,0.33,3.06,0.55,4.21,0.66v4.32H240v-4.32c1.07-0.11,2.49-0.27,4.26-0.47
			c1.77-0.2,3.01-0.45,3.71-0.75c1.44-0.59,2.39-1.31,2.85-2.16c0.46-0.85,0.69-2.03,0.69-3.54V76c0-1.29-0.22-2.41-0.66-3.35
			c-0.44-0.94-1.4-1.73-2.88-2.35c-1.03-0.44-2.41-0.84-4.13-1.19c-1.72-0.35-3-0.58-3.85-0.69V64.1h43.36
			c10.15,0,17.74,1.62,22.76,4.85C311.14,72.17,313.65,77.11,313.65,83.76z M292.06,86.58c0-5.91-1.19-10.29-3.57-13.15
			c-2.38-2.86-6.62-4.29-12.71-4.29h-4.6v34.5h2.33c6.05,0,10.66-1.39,13.82-4.18C290.48,96.67,292.06,92.38,292.06,86.58z"/>
		<path class="st0" d="M351.28,142.68h-34.89v-4.04c0.97-0.07,1.9-0.17,2.81-0.28c0.91-0.11,1.72-0.3,2.43-0.55
			c1.19-0.44,2-1.08,2.43-1.91c0.43-0.83,0.64-1.93,0.64-3.29V71.24c0-1.4-0.29-2.7-0.86-3.9c-0.57-1.2-1.34-2.11-2.3-2.74
			c-0.74-0.48-1.86-0.94-3.35-1.38c-1.5-0.44-2.82-0.7-3.96-0.78v-4.04l27.91-1.44l0.83,0.89v74.04c0,1.37,0.24,2.47,0.72,3.32
			c0.48,0.85,1.26,1.51,2.34,1.99c0.74,0.33,1.52,0.63,2.34,0.89c0.82,0.26,1.78,0.44,2.9,0.55V142.68z"/>
		<path class="st0" d="M418.3,141.51c-1.62,0.7-3.54,1.35-5.75,1.94c-2.21,0.59-4.55,0.89-7.02,0.89c-4.53,0-7.87-0.67-10-2.02
			c-2.14-1.35-3.59-3.28-4.37-5.79h-0.33c-1.26,1.26-2.47,2.33-3.63,3.21c-1.16,0.89-2.41,1.64-3.74,2.27
			c-1.74,0.81-3.41,1.42-5.02,1.83c-1.61,0.41-3.85,0.61-6.74,0.61c-4.29,0-7.95-1.27-10.98-3.8c-3.03-2.53-4.55-5.89-4.55-10.07
			c0-2.4,0.33-4.45,1-6.13c0.67-1.68,1.61-3.17,2.83-4.46c1.11-1.18,2.39-2.16,3.85-2.94c1.46-0.78,3.06-1.5,4.8-2.16
			c3.33-1.22,7.32-2.49,11.98-3.8c4.66-1.31,8.06-2.49,10.21-3.52v-5.32c0-0.92-0.07-2.14-0.22-3.65c-0.15-1.51-0.46-2.79-0.94-3.82
			c-0.52-1.18-1.33-2.18-2.44-2.99c-1.11-0.81-2.57-1.22-4.38-1.22c-1.62,0-2.98,0.23-4.07,0.69c-1.09,0.46-1.97,0.93-2.63,1.41
			c0.11,0.74,0.43,1.86,0.94,3.38c0.52,1.51,0.78,2.97,0.78,4.37c0,0.63-0.17,1.41-0.5,2.35c-0.33,0.94-0.81,1.69-1.44,2.24
			c-0.85,0.74-1.8,1.31-2.86,1.72c-1.06,0.41-2.68,0.61-4.86,0.61c-3.11,0-5.46-0.75-7.05-2.24c-1.59-1.5-2.39-3.44-2.39-5.84
			c0-2.07,0.82-3.92,2.46-5.57c1.64-1.64,3.65-3,6.01-4.07c2.33-1.11,5-1.97,8.03-2.57c3.03-0.61,5.83-0.91,8.42-0.91
			c3.58,0,6.87,0.21,9.86,0.64c2.99,0.42,5.68,1.3,8.09,2.63c2.29,1.29,4.11,3.17,5.45,5.62c1.35,2.46,2.02,5.66,2.02,9.61
			c0,4.17-0.08,9.12-0.25,14.84c-0.17,5.72-0.25,9.49-0.25,11.3c0,1.66,0.25,2.97,0.75,3.93c0.5,0.96,1.26,1.68,2.3,2.16
			c0.63,0.3,1.61,0.47,2.96,0.53c1.35,0.06,2.58,0.08,3.68,0.08V141.51z M390.84,112.66c-2.07,0.7-4.13,1.51-6.17,2.41
			c-2.04,0.91-3.71,1.86-5,2.86c-1.37,1.04-2.45,2.36-3.22,3.97c-0.78,1.61-1.17,3.51-1.17,5.69c0,2.89,0.66,4.98,1.97,6.27
			c1.32,1.3,2.94,1.94,4.86,1.94c2.04,0,3.71-0.42,5.03-1.25c1.32-0.83,2.47-1.86,3.47-3.08L390.84,112.66z"/>
		<path class="st0" d="M494.19,142.68h-33.28v-4.04c0.7-0.07,1.55-0.17,2.55-0.28c1-0.11,1.75-0.3,2.27-0.55
			c0.78-0.41,1.33-1,1.66-1.77c0.33-0.78,0.5-1.92,0.5-3.43v-25.92c0-3.77-0.69-6.6-2.08-8.5c-1.39-1.9-3.43-2.85-6.14-2.85
			c-1.48,0-2.86,0.22-4.14,0.66c-1.28,0.44-2.53,1.09-3.75,1.94c-1.07,0.74-1.93,1.5-2.58,2.27c-0.65,0.78-1.19,1.46-1.64,2.05
			v29.74c0,1.29,0.18,2.37,0.55,3.24c0.37,0.87,0.98,1.52,1.83,1.97c0.59,0.33,1.33,0.63,2.21,0.89c0.89,0.26,1.75,0.44,2.6,0.55
			v4.04h-33.67v-4.04c0.92-0.07,1.86-0.17,2.8-0.3c0.94-0.13,1.74-0.3,2.41-0.53c1.18-0.41,1.99-1.03,2.44-1.88
			c0.44-0.85,0.66-1.96,0.66-3.32v-32.23c0-1.14-0.3-2.27-0.89-3.38c-0.59-1.11-1.37-2.01-2.33-2.71c-0.66-0.44-1.5-0.81-2.52-1.11
			c-1.02-0.3-2.13-0.5-3.35-0.61v-4.04l26.41-1.44l0.83,0.83v8.03h0.22c1.03-0.92,2.29-2.03,3.77-3.32c1.48-1.29,2.84-2.34,4.1-3.16
			c1.37-0.89,3.16-1.64,5.37-2.27c2.22-0.63,4.58-0.94,7.09-0.94c6.02,0,10.53,1.71,13.54,5.12c3.01,3.42,4.51,7.95,4.51,13.59
			v27.13c0,1.37,0.2,2.46,0.61,3.27c0.41,0.81,1.16,1.46,2.27,1.94c0.59,0.26,1.32,0.52,2.19,0.78c0.87,0.26,1.86,0.44,2.96,0.55
			V142.68z"/>
		<path class="st0" d="M595.18,106.63c2.36,1.62,4.28,3.66,5.76,6.12c1.48,2.46,2.22,5.34,2.22,8.67c0,3.99-0.84,7.36-2.52,10.11
			c-1.68,2.75-4.09,4.92-7.23,6.51c-3.32,1.7-7.15,2.9-11.49,3.6c-4.34,0.7-9.44,1.05-15.31,1.05H525.8v-4.32
			c1.14-0.11,2.58-0.28,4.32-0.5c1.73-0.22,2.95-0.48,3.65-0.78c1.37-0.55,2.3-1.28,2.8-2.19c0.5-0.9,0.75-2.08,0.75-3.52V76
			c0-1.33-0.2-2.44-0.61-3.32c-0.41-0.89-1.38-1.66-2.93-2.33c-1.14-0.48-2.47-0.88-3.99-1.19c-1.51-0.31-2.84-0.56-3.99-0.75V64.1
			h42.7c10.74,0,18.5,1.48,23.26,4.43c4.76,2.95,7.14,7.31,7.14,13.07c0,2.66-0.54,4.99-1.61,7.01c-1.07,2.01-2.6,3.76-4.6,5.23
			c-1.81,1.37-3.97,2.55-6.48,3.54c-2.51,1-5.21,1.83-8.09,2.49v1.05c2.88,0.3,5.87,0.93,8.97,1.91
			C590.2,103.81,592.89,105.08,595.18,106.63z M577.35,82.98c0-4.36-1.23-7.75-3.68-10.19c-2.46-2.44-6.14-3.65-11.05-3.65
			c-0.7,0-1.62,0.03-2.74,0.08c-1.13,0.06-2.1,0.1-2.91,0.14v29.13h2.88c5.98,0,10.39-1.39,13.24-4.18
			C575.93,91.52,577.35,87.74,577.35,82.98z M581.23,120.72c0-5.47-1.62-9.67-4.87-12.59c-3.25-2.92-7.92-4.38-14.01-4.38
			c-0.7,0-1.63,0.03-2.8,0.08c-1.16,0.06-2.02,0.1-2.57,0.14v28.79c0.33,1.37,1.37,2.52,3.1,3.47c1.73,0.94,3.84,1.41,6.31,1.41
			c4.39,0,7.96-1.48,10.72-4.44C579.85,130.24,581.23,126.08,581.23,120.72z"/>
		<path class="st0" d="M669.13,129.44c-1.29,2.1-2.85,4.09-4.68,5.95c-1.83,1.86-3.9,3.46-6.23,4.79c-2.47,1.4-4.98,2.46-7.5,3.18
			c-2.53,0.72-5.44,1.08-8.72,1.08c-5.46,0-10.18-0.78-14.15-2.33c-3.97-1.55-7.25-3.64-9.83-6.26c-2.58-2.62-4.51-5.71-5.79-9.28
			c-1.27-3.56-1.91-7.43-1.91-11.6c0-3.77,0.69-7.37,2.08-10.83c1.38-3.45,3.35-6.52,5.9-9.22c2.51-2.62,5.68-4.74,9.5-6.37
			c3.82-1.62,8.09-2.44,12.82-2.44c5.17,0,9.41,0.63,12.74,1.88c3.32,1.26,6.07,2.99,8.25,5.21c2.1,2.1,3.64,4.59,4.6,7.45
			c0.96,2.86,1.44,5.86,1.44,9v3.6H630.2c0,7.57,1.46,13.33,4.37,17.28c2.92,3.95,7.55,5.93,13.9,5.93c3.47,0,6.59-0.95,9.36-2.85
			c2.77-1.9,5.13-4.31,7.09-7.23L669.13,129.44z M647.98,108.4c0-2.22-0.11-4.49-0.33-6.81c-0.22-2.33-0.61-4.23-1.16-5.7
			c-0.63-1.73-1.49-3.05-2.57-3.93c-1.09-0.89-2.46-1.33-4.13-1.33c-2.84,0-5.11,1.44-6.81,4.32c-1.7,2.88-2.62,7.44-2.77,13.68
			L647.98,108.4z"/>
		<path class="st0" d="M732.5,129.44c-1.29,2.1-2.85,4.09-4.68,5.95c-1.83,1.86-3.9,3.46-6.23,4.79c-2.47,1.4-4.98,2.46-7.5,3.18
			c-2.53,0.72-5.44,1.08-8.72,1.08c-5.46,0-10.18-0.78-14.15-2.33c-3.97-1.55-7.25-3.64-9.83-6.26c-2.58-2.62-4.51-5.71-5.79-9.28
			c-1.27-3.56-1.91-7.43-1.91-11.6c0-3.77,0.69-7.37,2.08-10.83c1.38-3.45,3.35-6.52,5.9-9.22c2.51-2.62,5.68-4.74,9.5-6.37
			c3.82-1.62,8.09-2.44,12.82-2.44c5.17,0,9.41,0.63,12.74,1.88c3.32,1.26,6.07,2.99,8.25,5.21c2.1,2.1,3.64,4.59,4.6,7.45
			c0.96,2.86,1.44,5.86,1.44,9v3.6h-37.43c0,7.57,1.46,13.33,4.37,17.28c2.92,3.95,7.55,5.93,13.9,5.93c3.47,0,6.59-0.95,9.36-2.85
			c2.77-1.9,5.13-4.31,7.09-7.23L732.5,129.44z M711.35,108.4c0-2.22-0.11-4.49-0.33-6.81c-0.22-2.33-0.61-4.23-1.16-5.7
			c-0.63-1.73-1.49-3.05-2.57-3.93c-1.09-0.89-2.46-1.33-4.13-1.33c-2.84,0-5.11,1.44-6.81,4.32c-1.7,2.88-2.62,7.44-2.77,13.68
			L711.35,108.4z"/>
	</g>
</g>
</svg>
